<svg width="67" height="72" viewBox="0 0 67 72" fill="none" xmlns="http://www.w3.org/2000/svg">
<path d="M26.0392 17.9808C31.6337 18.8126 36.1877 22.8174 39.396 27.2429C62.1368 22.6632 76.0845 51.3647 57.8398 66.3207C49.0241 73.5467 34.7939 72.3199 27.3367 63.7387C26.2094 62.4412 25.4612 60.0454 23.637 60.0229C21.4146 59.9972 20.2039 60.4083 17.625 59.9587C-1.88179 56.5513 -6.50639 30.2264 10.4023 20.1711C12.3967 18.9828 14.6158 18.4272 16.7194 17.5055C15.5857 15.3538 11.6966 9.99696 16.2312 9.62121C18.7587 9.41246 24.0674 9.34502 26.5274 9.62763C31.2226 10.1672 25.3584 17.2871 26.0392 17.9808ZM19.6162 20.5533L18.839 13.1443C18.4279 12.5405 16.228 12.9612 15.4476 12.8456C16.6841 15.4437 17.9141 18.2666 19.6194 20.55L19.6162 20.5533ZM22.5098 12.8456C21.9124 12.913 19.8346 12.5437 19.7029 13.3113L20.5828 21.1956H21.5431L22.5098 12.8456ZM27.0027 12.8488H23.4732L22.5098 21.1956L23.9614 19.2751L27.0027 12.8488ZM17.3392 18.6488C4.78855 21.0799 -2.28966 34.3917 2.351 46.329C5.68457 54.907 14.8792 60.7102 24.1123 59.0884L23.1135 56.2365C9.97196 57.3445 0.157528 44.8388 4.92023 32.3524C7.09443 26.6584 12.554 22.2136 18.6527 21.5167L17.336 18.652L17.3392 18.6488ZM38.243 27.6154C35.5807 23.0293 30.8469 20.0747 25.8048 18.6841C25.0918 18.6713 23.7944 21.1442 24.1123 21.5135C28.313 22.2425 32.7417 24.5805 35.0925 28.2031L38.243 27.6154ZM22.5098 55.2378C19.8378 44.4117 24.5427 33.8522 34.386 28.7426C27.4041 19.4967 13.1835 20.1518 7.15866 30.0915C0.0483364 41.8168 9.01814 56.1884 22.5098 55.2378ZM42.3538 27.7117C23.3287 29.34 15.7495 53.0346 30.5354 65.3573C44.8138 77.2592 66.4435 65.8262 65.2359 47.3567C64.4909 35.9365 53.7579 26.7387 42.3538 27.7117Z" fill="#94A760"/>
<path d="M21.8658 0H20.9023V6.1019H21.8658V0Z" fill="#94A760"/>
<path d="M18.6508 2.57172L19.6207 6.42234L18.6316 6.23286C18.471 5.03175 16.6661 2.0932 18.6508 2.57172Z" fill="#94A760"/>
<path d="M23.7814 6.41926H22.8276C22.5385 6.13664 23.9612 2.26354 24.2696 2.25391C25.4257 3.35546 23.6337 5.08969 23.7782 6.41926H23.7814Z" fill="#94A760"/>
<path d="M27.3259 4.17614C27.57 4.43948 26.3047 7.98822 25.0811 7.38446C24.8338 7.15323 26.6933 3.49529 27.3259 4.17614Z" fill="#94A760"/>
<path d="M15.288 4.17776C15.8371 4.0782 16.7621 5.89914 16.9804 6.33591C17.1442 6.66348 17.6067 7.2544 16.8841 7.38608C16.3349 7.48563 15.41 5.6647 15.1916 5.22793C15.0278 4.90035 14.5654 4.30943 15.288 4.17776Z" fill="#94A760"/>
<path d="M28.4786 7.57089C28.7451 7.33966 28.9025 6.89005 29.4163 6.75195L29.8948 7.54199L27.8138 9.31154L27.4766 8.33524C27.7849 8.03978 28.1574 7.84708 28.4786 7.56768V7.57089Z" fill="#94A760"/>
<path d="M13.0352 6.752C13.1605 6.75842 14.6603 8.29353 14.8016 8.51192C15.0714 8.9262 15.1452 9.21845 14.6346 9.31159L12.7077 7.71225C12.2741 7.42 12.8843 6.74558 13.0352 6.752Z" fill="#94A760"/>
<path d="M31.9383 36.0811C48.8437 20.046 73.2803 46.6567 55.5944 62.1459C38.5669 77.057 15.3443 51.8208 31.9383 36.0811ZM41.7816 32.436C44.338 42.8607 40.0634 53.3013 30.5445 58.3081C40.8213 72.9302 62.8974 63.636 60.3314 45.841C59.5028 40.102 52.4117 32.436 46.4383 32.436H41.7816ZM40.8149 32.7572L37.9245 33.4027C40.2272 40.6929 37.6965 48.3716 31.6075 52.9352C29.6838 54.3772 27.1434 54.2263 29.7833 57.1391C39.1257 53.4619 43.3392 42.2216 40.8117 32.7572H40.8149ZM37.2822 34.0418C36.5147 33.2999 32.1791 37.2598 31.4951 38.0498C27.7601 42.3629 26.4947 48.089 27.972 53.6353C28.5565 54.1363 31.7359 51.596 32.314 51.0725C37.1409 46.7113 38.7692 40.3139 37.2822 34.0418Z" fill="#94A760"/>
</svg>
