<svg width="169" height="11" viewBox="0 0 169 11" fill="none" xmlns="http://www.w3.org/2000/svg">
<path d="M81.934 6.91651C82.066 6.05504 82.823 4.54289 81.7049 3.93987C78.3232 2.11429 72.051 9.39093 68.31 7.06864C66.8492 6.16135 66.8602 3.82806 68.2807 2.88595L69.133 4.59605C70.0751 5.90108 71.8915 5.92857 73.3175 5.63164L71.7577 4.90214C70.5553 3.80423 70.6067 1.83569 71.9447 0.86975C72.3369 0.787269 72.1884 1.03105 72.2654 1.27299C72.6448 2.46804 72.8813 3.14255 74.1936 3.56596C77.8118 4.73168 81.0744 1.33714 84.216 0.310713C87.2458 -0.679056 89.196 0.752443 87.6105 3.79873L87.2458 3.70709C87.4767 3.06374 87.6234 1.77337 87.1523 1.24C86.8664 0.917405 85.3982 0.385862 85.2332 1.04937C86.5914 1.25649 86.9562 2.54869 86.5584 3.75108C86.3715 4.31378 85.7373 4.69869 85.6383 5.02861C85.2442 6.33548 86.0177 7.73948 87.3539 8.00525C87.5464 8.04375 88.505 8.16655 88.5325 7.83663C86.7069 7.65884 85.543 5.35671 86.9763 3.98569C87.0167 6.52793 87.913 7.31242 90.435 7.07781C93.7196 6.77171 98.0966 2.53403 101.132 3.75658C102.71 4.3926 102.307 7.10163 100.718 7.64784C100.225 7.79447 100.525 6.5316 100.408 6.13019C100.223 5.49234 98.9269 5.09277 98.3294 5.0781C98.0471 5.07077 96.0694 5.40069 96.414 5.63164C99.1468 5.529 99.1798 9.14349 96.7806 9.66404C97.2956 7.92277 95.9649 7.01549 94.3135 7.09797C90.5945 7.28309 86.4228 11.8012 83.0649 10.8261C81.5491 10.3862 80.6052 8.33151 81.5528 7.03015C81.6976 6.83036 81.9029 6.944 81.934 6.91834C81.5986 9.12516 82.7936 10.3587 85.0481 10.0324L83.591 9.38543C82.6708 8.42866 82.3226 7.06131 83.3087 6.00372C83.2006 8.80624 84.698 9.39277 87.2476 9.11783C86.7949 8.54963 86.0287 8.61011 85.4972 8.02908C83.7743 6.14852 85.7758 5.04878 85.9481 3.69426C86.2322 1.47827 84.5312 1.50577 82.8486 1.78987C83.1841 2.32508 84.2636 2.53036 84.4598 3.20121C84.698 4.01318 84.4744 5.21007 83.8549 5.82043C83.4333 5.88825 83.6001 5.68113 83.6276 5.40986C83.8164 3.50547 83.8751 2.71182 81.5674 2.70632L82.7497 3.8134C83.4535 5.10926 82.9348 6.07337 81.9322 6.92201L81.934 6.91651ZM74.6006 4.53556L72.6045 3.69059L71.6716 2.15278C71.5176 3.44315 72.1206 4.44575 73.422 4.70602C73.6126 4.74451 74.5731 4.86732 74.6006 4.5374V4.53556ZM70.9347 6.55176C70.1081 6.61225 69.4684 6.06421 68.8269 5.63531L68.0058 4.16898C68.0058 5.58765 68.442 6.53526 69.9285 6.73322C70.1173 6.75888 70.9457 6.87435 70.9347 6.55176ZM101.361 6.36664C101.542 4.9388 101.04 4.15798 99.5317 4.3541L100.73 5.25956L101.361 6.36664ZM97.6952 8.19954C97.8876 6.79737 97.2186 6.27499 95.8641 6.36847C96.1464 6.73322 96.6064 6.76254 96.973 7.18045C97.2919 7.5452 97.3048 7.98876 97.6933 8.19954H97.6952Z" fill="#E3EDBB"/>
<path d="M62.821 6.13459C62.6469 6.27572 61.9431 6.3802 61.6865 6.37287C49.3162 6.03011 36.8579 5.79733 24.4785 5.62687C16.3092 5.51323 8.16377 5.58105 0 5.35927L55.6379 4.54179C56.0704 4.53629 56.4718 4.35117 56.9062 4.34384C57.8044 4.32918 62.4123 4.22103 62.7954 4.51613C63.2243 4.88271 63.2426 5.79367 62.821 6.13459Z" fill="#E3EDBB"/>
<path d="M168.999 5.26913C169.041 5.58805 168.583 5.44142 168.361 5.45059C164.62 5.60455 160.749 5.39926 156.988 5.44325C140.464 5.63388 123.847 5.91981 107.316 6.37254C106.048 6.40736 105.428 5.58622 106.207 4.5158L106.946 4.33984L168.999 5.26913Z" fill="#E3EDBB"/>
<path d="M66.3533 3.06914C65.1839 3.88845 64.2601 5.2393 65.2811 6.61398C65.6421 7.0997 66.3533 7.06305 66.3533 7.64774C65.5982 7.62025 64.7752 7.25183 64.3298 6.64148C64.1483 6.39403 64.1868 5.69936 63.7909 5.99996C63.6663 6.09527 63.4702 6.96773 62.6875 6.72946C63.7084 5.76351 63.7084 4.9497 62.6875 3.98376C63.4243 3.78581 63.5966 4.49331 64.152 4.5318C64.2803 3.48888 65.3819 2.98483 66.3533 3.06731V3.06914Z" fill="#E3EDBB"/>
<path d="M104.848 4.53421H105.117C105.445 4.12181 105.753 3.89819 106.31 3.98617C105.289 4.95212 105.289 5.76593 106.31 6.73187C105.423 6.91149 105.401 5.97304 104.846 6.00054C104.795 7.04346 103.592 7.597 102.645 7.65015C102.645 7.06362 103.356 7.10211 103.717 6.61639C104.738 5.24171 103.812 3.89086 102.645 3.07155C103.616 2.98724 104.718 3.49312 104.846 4.53605L104.848 4.53421Z" fill="#E3EDBB"/>
</svg>
