<svg width="68" height="71" viewBox="0 0 68 71" fill="none" xmlns="http://www.w3.org/2000/svg">
<path d="M65.6561 4.09547C65.9124 9.95835 68.1435 16.092 67.8872 21.9332C67.8258 23.3375 66.6236 33.0705 66.2446 33.6626L63.1795 33.2907L62.8185 70.8362C61.8041 70.6377 58.5297 71.3633 58.1759 70.2406L55.4141 41.5904L53.017 70.2442C52.6596 71.3489 49.6018 70.6413 48.6054 70.8543C48.1216 70.7424 48.0386 68.6052 48.0097 68.1539C47.3815 57.5689 48.5476 45.7529 47.6487 35.2799C47.5909 34.6048 47.2949 33.973 47.2877 33.2907L44.5728 33.955L44.118 33.399C43.7822 28.8214 42.3562 23.6083 42.6486 19.074C42.9447 14.4782 44.5295 9.41321 44.9302 4.75251C45.4754 3.19654 48.6234 3.10629 50.0747 2.31567C51.0206 1.80303 51.7426 0.539475 52.3527 0.261494C53.0314 -0.0453687 57.0964 -0.0814702 57.869 0.149579C58.5622 0.355357 59.4466 1.79942 60.3961 2.31567C61.2156 2.76332 65.5117 3.8572 65.6561 4.09547ZM49.4574 3.68752L46.2191 4.94746C49.1 10.2255 48.8689 16.6046 49.0964 22.4603H51.6271V23.5397L49.0819 23.7744L48.3599 32.3773C48.7101 34.7781 53.3022 31.7347 54.1072 30.1752C54.9015 28.6336 54.3744 26.6625 54.5116 24.9874C52.9303 26.547 51.4502 25.1498 52.9015 23.5433L54.5116 24.2654V20.2978L53.2589 21.0307L52.3455 20.1173L53.2552 19.2003L54.5116 19.9368C54.4971 19.0667 54.6199 18.175 54.4358 17.3086C53.7498 14.0667 50.1361 9.18577 49.2516 5.85722C49.0061 4.93663 49.3021 4.5323 49.461 3.69474L49.4574 3.68752ZM64.259 4.77418L61.0098 3.68752C61.082 4.36984 61.425 4.82833 61.3131 5.57563C60.851 8.65508 56.4791 14.4133 55.9773 17.6082C55.6921 19.4314 55.6849 27.6842 56.0387 29.417C56.508 31.7167 59.5513 33.5506 61.7571 33.1391C62.5839 32.5398 61.6272 24.9621 61.3239 23.5939L58.4936 23.0054C59.2012 22.0957 60.4069 22.5433 61.3745 22.4639C61.425 16.4747 61.8799 10.341 64.2626 4.77779L64.259 4.77418ZM53.7859 12.7093C53.6307 10.0089 53.2408 7.16409 51.6957 4.87887C50.692 3.3951 50.2985 3.98716 50.3419 5.48898L53.7859 12.7093ZM59.9232 4.04854C59.0062 3.84276 59.295 4.30125 58.9954 4.72724C57.295 7.11716 56.8546 9.82477 56.6849 12.7129L60.1434 5.85L59.9268 4.04854H59.9232ZM57.3997 4.77418C55.9159 4.26515 54.5513 4.26515 53.0675 4.77418L54.8762 9.09913C55.7174 9.28325 55.4538 8.98722 55.6813 8.63703C56.0098 8.12439 57.6091 5.08104 57.3997 4.77418ZM46.2046 6.93304C45.2516 6.85362 45.609 6.89694 45.5007 7.48178C43.9447 15.7996 43.1757 22.8393 44.8075 31.2654C44.8689 31.5903 44.988 32.5362 45.3526 32.5903L46.9483 31.9622C46.9086 28.3015 45.9628 24.0668 46.1974 20.4566C46.3418 18.2581 47.5693 15.8573 47.6162 13.9331C47.6703 11.7851 46.6487 9.04137 46.2046 6.92943V6.93304ZM63.573 32.1716L65.1326 32.5254L65.6525 31.973C65.5767 28.7564 66.6056 25.417 66.7861 22.2762C67.0785 17.1425 65.3348 12.045 64.981 6.93665C63.7174 8.33017 62.9413 12.2472 62.9485 14.0414C62.9593 15.8393 64.1326 18.3664 64.2734 20.4603C64.5225 24.139 63.6019 28.4423 63.573 32.1716ZM48.0133 24.9874V18.4891C47.7353 18.2797 47.2913 19.2184 47.2913 19.3917V24.9874H48.0133ZM63.1759 24.9874V19.0306C63.1759 18.9693 62.6886 18.4602 62.4539 18.4891V24.4459C62.4539 24.5072 62.9413 25.0163 63.1759 24.9874ZM51.9881 69.7532L54.869 31.482C52.97 33.2763 51.0892 34.3846 48.3743 34.3702L49.0964 69.7496H51.9881V69.7532ZM62.0748 34.3882C60.9521 34.2366 59.638 34.1391 58.5838 33.7275C57.3094 33.233 56.8257 32.1174 55.5946 31.8467L59.4105 69.764L61.7355 69.7532L62.0748 34.3882Z" fill="#94A760"/>
<path d="M28.1555 0.0726005L28.235 4.50947L33.2061 11.2641C33.6538 8.81276 36.9498 6.49505 37.7116 4.39034C38.1195 3.26036 37.6755 2.56721 37.7188 1.50222C37.7405 0.960696 37.7008 -0.219821 38.625 0.0762107C38.6791 1.4228 38.5022 2.79465 38.7152 4.13762C38.9282 5.4806 40.2351 7.40481 40.264 8.55283C40.3217 10.8561 38.2639 14.9067 38.3614 17.4879C38.5022 21.2353 41.0799 26.6722 41.4734 30.6217L46.2099 70.4741C36.0906 70.1491 25.7909 70.9001 15.6861 70.4885C12.8702 70.373 9.25281 70.1925 6.5813 69.4849C5.51631 69.2033 0.245493 67.3621 0.0324948 66.6256C-0.447655 64.9686 4.53074 62.6581 5.88815 62.1057C8.44775 61.066 11.9929 60.9469 13.7149 58.7411C17.3395 49.1886 21.7764 39.055 24.6501 29.2426C25.4227 26.6072 27.5418 18.8851 27.401 16.5565C27.2602 14.228 25.5923 10.6539 25.6176 8.54922C25.632 7.36149 26.8559 5.61417 27.0436 4.199C27.2169 2.87407 26.9858 1.41919 27.0761 0.0762107H28.1555V0.0726005ZM34.2928 16.6829C32.8632 12.7153 30.235 9.46259 28.1519 5.85244C25.1266 8.56005 28.3613 13.2569 28.5165 16.6829H34.2928ZM35.43 16.6215C36.2711 16.7984 37.0437 16.885 37.4733 16.0728C37.6502 15.7406 39.1556 9.25681 39.1701 8.77666C39.199 7.84886 38.2639 6.84884 38.2603 5.85244C37.939 5.59973 33.6791 11.7731 33.6538 12.589L35.4336 16.6215H35.43ZM37.8993 20.2894C36.6899 21.3725 35.0942 20.0331 34.4805 20.0656C33.235 20.1342 31.0509 20.5385 29.744 20.6577C29.0364 20.7226 28.4624 20.3652 27.7945 20.2894C23.975 35.795 22.5598 51.7916 20.2096 67.5823C21.3901 66.8639 23.4587 68.6148 23.6465 68.6112C23.8847 68.6112 24.5165 67.1997 26.5201 67.5859C27.4082 67.7556 27.6285 68.6582 28.3324 68.6726C28.4624 68.6726 28.5238 67.6184 30.1483 67.5679C32.0906 67.5065 32.1772 68.6762 32.3072 68.6726C33.1303 68.6509 33.596 66.9686 35.8415 67.6581C36.4553 67.8459 36.6358 68.6618 37.3542 68.6726C37.5203 68.6726 37.495 67.734 38.8343 67.6004C41.0871 67.3766 41.1845 68.6762 41.3326 68.6726C42.0077 68.6545 43.2423 66.8639 44.7622 67.5859L40.7369 33.5206L37.8957 20.2894H37.8993ZM18.7186 69.3405L23.4587 36.5387L14.9568 58.8963C12.8052 62.0624 9.67881 61.8242 6.50188 63.0769C5.63544 63.4198 1.74009 65.3585 1.44406 65.9614C1.14803 66.5643 1.8845 66.5282 2.1697 66.6581C7.71128 69.1816 12.6716 69.3802 18.7186 69.3369V69.3405Z" fill="#94A760"/>
</svg>
