<?xml version="1.0" encoding="UTF-8"?>
<svg id="Layer_1" data-name="Layer 1" xmlns="http://www.w3.org/2000/svg" viewBox="0 0 1255.45 1255.45">
  <defs>
    <style>
      .cls-1 {
        fill: #fdfcef;
      }

      .cls-2 {
        fill: #587637;
      }
    </style>
  </defs>
  <circle class="cls-1" cx="627.73" cy="627.73" r="627.73"/>
  <g>
    <path class="cls-2" d="M627.73,1200.51c-77.32,0-152.34-15.14-222.96-45.01-33.94-14.36-66.68-32.12-97.3-52.81-30.33-20.49-58.85-44.02-84.77-69.94-25.92-25.92-49.45-54.44-69.94-84.77-20.69-30.62-38.46-63.36-52.81-97.3-29.87-70.62-45.01-145.63-45.01-222.96s15.14-152.34,45.01-222.96c14.36-33.94,32.12-66.68,52.81-97.3,20.49-30.33,44.02-58.85,69.94-84.77,25.92-25.92,54.44-49.45,84.77-69.94,30.62-20.69,63.36-38.46,97.3-52.81,70.62-29.87,145.63-45.01,222.96-45.01s152.34,15.14,222.96,45.01c33.94,14.36,66.68,32.12,97.3,52.81,30.33,20.49,58.85,44.02,84.77,69.94,25.92,25.92,49.45,54.44,69.94,84.77,20.69,30.62,38.46,63.36,52.81,97.3,29.87,70.62,45.01,145.63,45.01,222.96s-15.14,152.34-45.01,222.96c-14.36,33.94-32.12,66.68-52.81,97.3-20.49,30.33-44.02,58.85-69.94,84.77-25.92,25.92-54.44,49.45-84.77,69.94-30.62,20.69-63.36,38.46-97.3,52.81-70.62,29.87-145.63,45.01-222.96,45.01ZM627.73,58.08c-76.9,0-151.5,15.06-221.73,44.76-33.75,14.28-66.31,31.95-96.76,52.52-30.16,20.38-58.53,43.78-84.31,69.56-25.78,25.78-49.18,54.14-69.56,84.31-20.57,30.45-38.24,63.01-52.52,96.76-29.7,70.23-44.76,144.83-44.76,221.73s15.06,151.5,44.76,221.73c14.28,33.75,31.95,66.31,52.52,96.76,20.38,30.16,43.78,58.53,69.56,84.31,25.78,25.78,54.14,49.18,84.31,69.56,30.45,20.57,63.01,38.24,96.76,52.52,70.23,29.7,144.83,44.76,221.73,44.76s151.5-15.06,221.73-44.76c33.75-14.28,66.31-31.95,96.76-52.52,30.16-20.38,58.53-43.78,84.31-69.56,25.78-25.78,49.18-54.14,69.56-84.31,20.57-30.45,38.24-63.01,52.52-96.76,29.7-70.23,44.76-144.83,44.76-221.73s-15.06-151.5-44.76-221.73c-14.28-33.75-31.95-66.31-52.52-96.76-20.38-30.16-43.78-58.53-69.56-84.31-25.78-25.78-54.14-49.18-84.31-69.56-30.45-20.57-63.01-38.24-96.76-52.52-70.23-29.7-144.83-44.76-221.73-44.76Z"/>
    <path class="cls-2" d="M627.73,1178.74c-74.38,0-146.55-14.57-214.48-43.3-65.62-27.75-124.54-67.48-175.14-118.08-50.6-50.6-90.33-109.53-118.08-175.14-28.73-67.94-43.3-140.1-43.3-214.48s14.57-146.55,43.3-214.48c27.75-65.62,67.48-124.54,118.08-175.15,50.6-50.6,109.53-90.33,175.14-118.08,67.94-28.73,140.1-43.3,214.48-43.3s146.55,14.57,214.48,43.3c65.62,27.75,124.54,67.48,175.14,118.08,50.6,50.6,90.33,109.53,118.08,175.15,28.73,67.94,43.3,140.1,43.3,214.48s-14.57,146.55-43.3,214.48c-27.75,65.62-67.48,124.54-118.08,175.14-50.6,50.6-109.53,90.33-175.14,118.08-67.94,28.73-140.1,43.3-214.48,43.3ZM627.73,89.81c-72.62,0-143.07,14.22-209.38,42.27-64.05,27.09-121.58,65.88-170.98,115.28-49.4,49.4-88.19,106.93-115.28,170.98-28.05,66.31-42.27,136.76-42.27,209.38s14.22,143.07,42.27,209.38c27.09,64.05,65.88,121.58,115.28,170.98,49.4,49.4,106.93,88.19,170.98,115.28,66.31,28.05,136.76,42.27,209.38,42.27s143.07-14.22,209.38-42.27c64.05-27.09,121.58-65.88,170.98-115.28,49.4-49.4,88.19-106.93,115.28-170.98,28.05-66.31,42.27-136.76,42.27-209.38s-14.22-143.07-42.27-209.38c-27.09-64.05-65.88-121.58-115.28-170.98-49.4-49.4-106.93-88.19-170.98-115.28-66.31-28.05-136.76-42.27-209.38-42.27Z"/>
    <g>
      <path class="cls-2" d="M644.02,536.09c-18.18,53.64-40.23,96.2-66.16,127.67-25.93,31.48-53.31,53.86-82.12,67.16-28.82,13.3-57.42,19.95-85.78,19.95h-9.31c-3.11,0-6.21-.23-9.31-.66-19.07-1.78-36.69-7.31-52.87-16.62-16.19-9.31-29.26-22.28-39.23-38.9-9.97-16.62-14.96-36.24-14.96-58.85,0-6.65.55-13.74,1.66-21.28,1.1-7.53,2.76-15.29,4.99-23.27,4.43-15.51,12.07-30.26,22.94-44.22,10.86-13.96,24.27-25.82,40.23-35.58-7.54-11.97-13.2-24.82-16.96-38.57-3.77-13.74-5.65-27.48-5.65-41.23,0-18.17,3.21-35.58,9.64-52.2,6.42-16.62,16.29-30.69,29.59-42.23,16.84-15.07,35.13-25.71,54.86-31.92,19.72-6.2,40-9.31,60.84-9.31s43.56,2.56,65.5,7.65c21.94,5.1,43.11,11.53,63.5,19.28,20.39,7.76,39.23,15.63,56.52,23.61,17.29,7.98,32.14,14.63,44.55,19.95,17.29-16.84,33.8-28.37,49.54-34.58,15.73-6.2,29.81-9.31,42.23-9.31,9.31,0,17.17,1.23,23.61,3.66,6.42,2.44,11.19,5.43,14.3,8.98,2.21,2.22,3.32,4.88,3.32,7.98s-1.11,4.65-3.32,4.65c-1.78,0-3.55-1.1-5.32-3.32-4.88-6.2-10.42-10.53-16.62-12.97-6.21-2.43-12.63-3.66-19.28-3.66-14.63,0-29.59,4.55-44.89,13.63-15.29,9.09-27.38,18.52-36.24,28.26,10.64,3.55,23.71,7.43,39.23,11.64,15.51,4.22,32.14,7.88,49.87,10.97,17.73,3.11,35.24,4.65,52.53,4.65,19.5,0,37.57-2.55,54.2-7.65,16.62-5.09,30.03-14.52,40.23-28.26,3.1-3.54,5.76-5.32,7.98-5.32s3.32,1.33,3.32,3.99-1.11,5.1-3.32,7.31c-9.76,11.09-23.72,20.4-41.89,27.93-18.18,7.54-41.01,11.3-68.49,11.3-19.07,0-40.13-2.21-63.17-6.65-23.06-4.43-48.54-11.74-76.47-21.94-7.1,7.98-14.53,19.07-22.28,33.25-7.76,14.19-14.96,28.93-21.61,44.22-6.65,15.29-12.3,29.15-16.96,41.56-4.65,12.42-7.43,20.61-8.31,24.6l-1.99,7.98M399.31,740.24c24.82,0,47.98-6.32,69.49-18.95,21.5-12.63,41.23-29.14,59.18-49.54,17.95-20.39,34.35-42.78,49.21-67.16,14.85-24.38,30.11-53.5,41.64-77-10.64-1.33-62.59,5.18-74.56,9.17-.89.45-1.78.66-2.66.66-1.33,0-1.99-.66-1.99-1.99,0-2.21,1.33-3.99,3.99-5.32,6.2-2.66,12.85-4.54,19.95-5.65,7.09-1.1,55.54-7.83,61.31-6.94,11.52-23.49,17.49-36.72,26.13-55.56,8.64-18.84,15.85-32.69,21.61-41.56,11.97-18.62,23.94-33.91,35.91-45.88-15.08-5.76-34.69-12.74-58.85-20.95-24.17-8.2-50.32-15.51-78.47-21.94-28.16-6.42-55.75-9.64-82.79-9.64-20.4,0-39.57,2.44-57.52,7.31-17.95,4.88-33.81,13.08-47.55,24.6-11.53,9.76-20.51,22.72-26.93,38.9-6.43,16.19-9.64,33.14-9.64,50.87,0,11.09,1.33,21.94,3.99,32.58,2.66,10.64,6.87,20.61,12.63,29.92,20.39-10.64,41-15.96,61.84-15.96,15.96,0,30.81,3.77,44.55,11.3,13.74,7.54,24.16,20.18,31.25,37.9,11.08-5.76,20.61-13.19,28.59-22.28,7.98-9.08,13.3-20.05,15.96-32.92.88-3.1,2.43-4.65,4.65-4.65s2.88,1.99,1.99,5.98c-4.44,15.96-10.87,29.04-19.28,39.23-8.43,10.2-17.74,18.18-27.93,23.94,3.1,9.31,4.65,18.85,4.65,28.59,0,17.29-4.32,33.25-12.97,47.88-8.64,14.63-20.06,26.27-34.25,34.91-14.19,8.64-29.71,12.97-46.55,12.97-7.1,0-14.74-1.77-22.94-5.32-8.21-3.54-14.08-7.53-17.62-11.97-1.78-1.77-2.66-3.76-2.66-5.98s.88-3.32,2.66-3.32c2.66,0,5.54,1.78,8.64,5.32,3.54,3.99,9.31,7.1,17.29,9.31,7.98,2.22,14.85,3.32,20.61,3.32,12.85,0,24.82-4.09,35.91-12.3,11.08-8.2,20.05-18.95,26.93-32.25,6.87-13.3,10.31-27.26,10.31-41.89,0-7.53-1.11-15.29-3.32-23.27-7.1,2.66-14.19,4.55-21.28,5.65-7.1,1.11-14.19,1.66-21.28,1.66-8.43,0-16.41-.66-23.94-1.99-25.72-5.32-46.55-17.51-62.51-36.57-10.2,8.43-19.07,18.85-26.6,31.25-7.54,12.42-13.75,25.72-18.62,39.9-2.66,7.98-4.55,15.74-5.65,23.27-1.11,7.54-1.66,14.86-1.66,21.94,0,19.51,3.99,36.8,11.97,51.87,7.98,15.08,18.72,26.93,32.25,35.58,13.52,8.64,28.48,12.97,44.89,12.97ZM445.19,554.05c7.09,0,14.4-.66,21.94-1.99,7.53-1.33,14.85-3.54,21.94-6.65-5.77-15.96-14.41-27.7-25.93-35.24-11.53-7.53-24.17-11.3-37.9-11.3-19.07,0-37.24,6.21-54.53,18.62,6.2,7.98,13.96,14.96,23.27,20.95,9.31,5.98,20.17,10.54,32.58,13.63,6.2,1.33,12.41,1.99,18.62,1.99Z"/>
      <path class="cls-2" d="M876.42,495.93v-.66c-.45,0-1.78-.22-3.99-.67-2.22-.44-5.1-.67-8.64-.67-6.65,0-15.52,1.56-26.6,4.65-11.09,3.11-24.39,10.2-39.9,21.28-11.97-3.54-24.94-6.2-38.9-7.98-13.96-1.77-28.04-2.66-42.23-2.66-20.84,0-43.22,2.56-67.16,7.65-5.68,1.21-11.35,2.59-17,4.13,3.88,1.35,7.65,2.97,11.34,4.78,22.66-5.7,47.37-8.58,74.15-8.58,13.3,0,25.82.89,37.57,2.66,11.74,1.78,22.49,4.44,32.25,7.98-17.74,14.19-38.02,35.58-60.84,64.17-22.84,28.59-47.55,67.94-74.14,118.03-11.09,20.84-23.39,44-36.91,69.49-13.53,25.5-28.04,50.21-43.56,74.14-15.52,23.94-32.15,44.33-49.87,61.18-13.3-5.32-26.38-10.19-39.23-14.63-12.86-4.43-25.05-6.65-36.57-6.65-8.43,0-16.41,1.56-23.94,4.65-7.54,3.11-13.41,7.54-17.62,13.3-4.22,5.77-6.32,11.75-6.32,17.95,0,7.53,3.43,14.4,10.31,20.61,6.87,6.2,17.62,9.31,32.25,9.31s29.59-3.66,46.22-10.97c16.62-7.31,30.69-14.53,42.23-21.61,5.32,2.22,10.97,4.55,16.96,6.98,5.98,2.43,12.52,4.54,19.62,6.32,8.86,2.21,17.95,3.88,27.26,4.99,9.31,1.1,18.39,1.66,27.26,1.66,25.71,0,50.31-3.99,73.81-11.97,23.49-7.98,44.55-18.72,63.17-32.25,18.62-13.52,33.35-29.03,44.22-46.55,10.86-17.51,16.29-35.79,16.29-54.86,0-21.72-5.32-38.57-15.96-50.54-10.64-11.97-24.17-20.83-40.56-26.6-16.41-5.76-33.03-9.75-49.87-11.97,16.84-1.33,34.02-4.43,51.54-9.31,17.51-4.87,33.91-11.74,49.21-20.61,15.29-8.86,27.6-20.17,36.91-33.91,9.31-13.74,13.96-29.92,13.96-48.54,0-19.95-4.99-35.91-14.96-47.88-9.97-11.97-23.17-21.05-39.57-27.26,11.52-10.19,21.61-16.73,30.26-19.62,8.64-2.88,16.06-4.32,22.28-4.32,3.1,0,5.87.23,8.31.67,2.43.45,4.76.67,6.98.67s3.32-1.1,3.32-3.32c0-1.77-1.11-2.66-3.32-2.66ZM444.85,951.44c-10.64,0-18.07-1.66-22.28-4.99-4.22-3.33-6.32-7.21-6.32-11.64,0-4.87,2.55-9.97,7.65-15.29,5.09-5.32,11.41-8.86,18.95-10.64,6.65-1.33,13.07-1.99,19.28-1.99,9.75,0,18.84,1.44,27.26,4.32,8.42,2.89,17.06,6.1,25.93,9.64-21.73,20.39-45.22,30.59-70.49,30.59ZM731.12,726.01c16.18,5.32,29.59,13.08,40.23,23.27,10.64,10.2,15.96,24.39,15.96,42.56v7.98c0,2.66-.45,5.55-1.33,8.64-3.99,21.28-11.97,39.9-23.94,55.86-11.97,15.96-26.49,29.16-43.56,39.57-17.07,10.42-35.24,18.18-54.53,23.27-19.28,5.09-38.02,7.65-56.19,7.65-15.08,0-28.59-1.56-40.56-4.65-4.88-1.33-9.76-2.76-14.63-4.32-4.88-1.55-9.76-3.21-14.63-4.99,27.04-18.62,49.21-39.67,66.5-63.17,17.29-23.49,32.02-47.76,44.22-72.81,12.19-25.04,23.61-48.65,34.25-70.82,15.96,2.66,32.02,6.65,48.21,11.97ZM827.21,559.1c6.65,11.09,9.97,24.83,9.97,41.23,0,19.95-4.55,36.57-13.63,49.87-9.09,13.3-21.18,23.94-36.24,31.92-15.08,7.98-31.59,13.96-49.54,17.95-17.95,3.99-35.58,6.88-52.87,8.64,4.43-11.08,11.08-24.71,19.95-40.9,8.86-16.18,18.95-33.02,30.26-50.54,11.3-17.51,22.49-33.8,33.58-48.88,11.08-15.07,21.28-26.82,30.59-35.24,11.97,6.21,21.28,14.86,27.93,25.93Z"/>
    </g>
  </g>
</svg>