<svg width="99" height="104" viewBox="0 0 99 104" fill="none" xmlns="http://www.w3.org/2000/svg">
<path d="M40.7612 74.0142H5.46797C4.77701 74.0142 0 69.9685 0 69.5134V0H69.0952C76.298 14.5078 72.5897 31.5511 73.733 47.3441L99 66.0727C94.1981 80.0204 83.8339 91.6526 75.9799 104L41.2285 81.0506C38.8921 79.1152 39.593 76.4497 40.7612 74.0092V74.0142ZM33.802 2.00038H1.98835V34.0065L28.8261 35.9969L12.8547 31.5811C7.41655 24.0796 22.7915 24.2097 27.8419 26.5001C30.2478 27.5903 31.2768 29.8857 33.797 30.0008V2.00038H33.802ZM68.5981 2.00038H35.7903L34.8061 30.0008L40.2194 18.9586L49.1322 14.0177C61.3754 18.7286 47.3625 29.6807 41.7554 33.9965L68.5981 36.0069V2.00038ZM71.5806 38.0073V12.0023H70.5865V38.0073H71.5806ZM37.7836 33.0013C42.1878 32.4812 56.5139 20.594 50.7626 16.4282C45.235 12.4224 35.502 27.4903 37.7836 33.0013ZM32.8028 34.0015C30.0291 26.9252 20.2961 25.0348 13.9234 28.0154C10.6874 32.2862 30.7399 33.5264 32.8028 34.0015ZM1.98835 36.0069V68.0131H32.8078L35.7804 43.0133L26.1717 54.8355L22.871 55.5157C28.2048 50.4297 34.0455 44.9286 34.7912 37.0121C23.9845 39.8277 12.9044 36.427 1.98835 36.0069ZM68.5882 44.0085L66.9726 37.1421L39.767 36.0169C44.6037 42.4382 52.6167 44.0035 60.0631 44.8436L63.1848 41.0129L68.5832 44.0085H68.5882ZM58.6514 46.0138C55.2264 46.2739 51.9556 45.5738 48.7444 44.4786C44.3054 42.9683 41.1092 39.4226 36.7895 38.0123C39.4936 48.4293 35.8599 57.7661 34.7961 68.0081C38.0123 67.658 42.665 68.9983 45.3046 67.0829C46.2043 66.4328 56.9961 50.4697 57.866 48.7144C58.3283 47.7842 58.9745 47.3041 58.6514 46.0138ZM71.5707 46.0038V42.0131H70.5964V46.0038H71.5707ZM70.5964 65.0125L78.4802 53.6403L63.2693 44.0685L53.7402 59.3714L66.6098 69.0033C60.7093 64.5274 64.3828 53.7153 71.511 56.0858L70.5964 65.0125ZM86.4734 82.0158L96.3654 65.6126L81.0104 55.0656L70.5865 71.0036C75.95 73.014 79.375 70.9336 84.5049 70.0235C84.9573 73.3691 74.1406 72.2389 76.5615 74.9944L86.4784 82.0158H86.4734ZM68.5882 68.0081L69.5823 57.011C64.6065 59.3314 64.2585 64.7575 68.5882 68.0081ZM60.6447 69.0033L52.3036 61.0567L41.7603 76.9948L57.0209 85.8665L66.6048 75.5095C64.4126 74.6494 62.8269 76.8998 60.1377 77.0848C57.9207 77.2398 55.818 76.6797 53.7799 75.9246L54.6101 71.4387L60.6447 69.0083V69.0033ZM34.7961 72.0138L33.3049 70.0135H3.9767L5.46797 72.0138H34.7961ZM42.7446 70.0185H36.7895V70.9986L42.7396 72.0038V70.0135L42.7446 70.0185ZM66.6098 71.0237C62.5436 69.9484 60.0333 69.7434 56.2902 71.9388C53.5861 77.9 62.1757 75.2845 65.3372 73.2641C66.3463 72.624 67.082 73.3291 66.6098 71.0237ZM69.5823 75.0144L58.6762 87.5168L74.9608 97.9488L84.3508 83.6611C83.292 81.6307 71.8988 72.639 70.5914 74.0192C71.6005 78.135 71.6801 81.0206 70.0297 85.0113C69.3785 86.5866 70.1739 87.4718 67.6039 87.0117L69.5774 75.0144H69.5823ZM53.1884 86.0165V87.0167C53.8346 86.6817 53.8346 86.3516 53.1884 86.0165ZM62.136 92.0177V93.0179C62.7822 92.6828 62.7822 92.3528 62.136 92.0177ZM71.0835 98.0188V99.019C71.7298 98.684 71.7298 98.3539 71.0835 98.0188Z" fill="#94A760"/>
</svg>
