<?xml version="1.0" encoding="UTF-8"?>
<svg id="Layer_1" data-name="Layer 1" xmlns="http://www.w3.org/2000/svg" viewBox="0 0 1047.5 1011.61">
  <defs>
    <style>
      .cls-1 {
        fill: #93a660;
      }
    </style>
  </defs>
  <g id="PgonPm">
    <g>
      <path class="cls-1" d="M296.22,522.2l18.44,17.92c-4.87-11.66-5.36-14.17,2.16-24.6,17.22-23.88,41.25-39.09,64.21-11.79-6.71-13.65,5.51-26.48,16.09-34.25,28.27-20.77,41.08,13.2,48.84,12.5,20.68-10.33,41.3-21.05,63.04-29.1,29.45-10.9,95.07-34.6,110.79,5.91,13.96,35.98-20.96,60.66-45,81.29-46.63,40.01-98.86,75.98-146.69,114.67l71.64,99.67c6.91,5.04,31.26-1.74,40.86-2.26,20.35-1.11,57.9-2.21,65.79,21.97,12.05,36.93-30.51,46.05-56,57.43,8.61,31.96-12.45,54.54-44.94,44.92-9.39,27.04-32.12,83.08-67.74,49.21-22.73-21.61-6.83-71.02-8.49-98.58l-101.66-72.81c-17.56,24.77-36.79,49.67-55.81,73.77s-81.14,108.34-104.85,117.85c-27.29,10.95-53.42-3.45-57.24-32.66-5.64-43.09,30.07-103.59,45.97-142.95-9.93-12.09-21.29-15.73-18.57-34.09,1.52-10.25,20.46-31.19,30.99-30.99,4.64.09,7.05,4.66,11.7,4.05-16.18-14.36-25.12-27.75-9.65-47.11,9.31-11.65,38.69-40.16,47.28-12.93,5.56,17.64-22.31,28.82-18.34,34.33,40.61,12.06,16.49,53.57-17.12,27.87,4.58,12.72,1.74,20.67-8.55,28.91,9.16,9.58,23.44,8.31,21.34,25.49-1.09,8.93-22.89,47.32-28.18,59.78-11.58,27.23-26.88,59.49-21.89,89.46,8.32,6.18,26.2-15.36,31.94-21.59,45.68-49.56,82.65-112.4,127.44-161.65,6.21-6.83,15.93-19.04,25.76-17.37l131.5,95.55c10.17,15.7-7.82,64.96-3.12,85.56,6.19,1.2,3.42-1.8,4.82-4.7,4.68-9.64,18.21-42.89,23.59-48.24,11.67-11.59,29.69,3.37,31.52,1.54-2.65-10-11.66-19.81-3.13-29.9,7.82-9.23,44.12-18.56,54.52-28.99-11.64.17-26.04-.05-37.44,1.11-23.9,2.43-37.92,14.31-55.52-6.63-21.33-25.39-42.3-59.95-62.47-87.43-18-24.53-39.94-32.61-11.63-59.1,50.11-46.9,116.47-84.91,167.09-132.7,9-8.5,22.18-17.7,19.25-31.09-53.27-.41-101.53,31-149.03,51.35-20.24,2.48-21.29-21.27-25.5-21.32-8.16,10.19-16.26,13.22-28.9,8.53-3.02,3.15,17.68,21.44,3.25,34.3-20.8,18.53-30.44-17.18-34.31-17.14-11.16,10.8-20.05,24.67-37.46,17.1-2.5,2.57,14.15,14.01.07,26.85-17.84,16.27-31.09-11.58-41.81-22.6-21.35-21.96-47.51-47.56-74.08-62.97-57.4-33.3-73.66-5.95-42.23,46.52,22.23,37.12,57.1,64.67,86.9,95.19,5.62,8.61-2.59,22.09-11.81,23.75-10.19,1.83-22.11-10.29-29.53-16.74-36.89-32.03-133.86-136.53-79.16-184.2,49.09-42.78,139.68,36.53,171.05,74.13Z"/>
      <path class="cls-1" d="M721.01,193.78c36.27-4.59,68.54,4.85,93.67,31.54,45.82-49.67,128.66-41.83,163.39,16.52,55.09,92.56-53.56,195.79-123.1,244.36-8.46,5.91-30.21,21.85-39.12,23.04-9.17,1.23-40.23-21.64-49.16-28.18-68.62-50.24-170.89-150.51-114.09-242.2,13.64-22.02,42.56-41.8,68.42-45.07ZM727.39,225.87c-19.07,3.01-40.91,18.61-49.88,35.77-34.03,65.1,45.85,143.05,92.26,179.93,6.73,5.35,34.05,26.94,39.68,28.95,3.7,1.32,4.73,1.34,8.5.19,7.13-2.17,34.82-24.25,42.55-30.37,44.19-35.01,119.05-108.84,94.49-171.14-16.82-42.66-71.93-57.54-108.14-28.81-10.85,8.61-19.43,30.05-32.17,30.05-12.79,0-17.29-14.82-24.57-22.66-15.67-16.88-39.72-25.54-62.71-21.92Z"/>
      <path class="cls-1" d="M538.83,285.99c8.39,9.15,8.68,36.78-7.31,39.68-22.95,4.15-28.64-36.16-12.88-43.01,6.66-2.89,15.09-2.24,20.19,3.33Z"/>
      <path class="cls-1" d="M299.06,63.07c38.35-8.69,43.34,40.43,1.81,33.67-19.55-3.18-20.05-29.54-1.81-33.67Z"/>
      <path class="cls-1" d="M179.23,95.13c22.96-4.49,29.07,28.17,2.56,36.94-31.61,10.46-33.34-30.93-2.56-36.94Z"/>
      <path class="cls-1" d="M448.97,143.38c-14.83,14.84-48.73-11.99-33.72-30.52,14.66-18.1,50.66,13.57,33.72,30.52Z"/>
      <path class="cls-1" d="M79.71,198.1c2.59-2.66,11.29-5.23,15.27-4.87,24.02,2.21,13.2,50.6-14.35,42.37-15.39-4.6-8.81-29.39-.92-37.5Z"/>
      <path class="cls-1" d="M500.33,217.24c10.08-3,17.54-.26,22.48,8.75,8.6,15.66,6.35,38.01-16,33.2-13.41-2.89-23.9-36.76-6.48-41.95Z"/>
      <path class="cls-1" d="M559.86,671.71c3.74,0,9.78,3.21,13.23,5.1,30.75,16.75,4.74,49.94-22.74,24.87-12.57-11.48-5.04-29.97,9.51-29.96Z"/>
      <path class="cls-1" d="M134.18,175.46c-16.76,13.5-41.6-10.18-17.68-31.57,17-15.21,36.52.66,29.54,16.66-.38.88-11.12,14.32-11.86,14.92Z"/>
      <path class="cls-1" d="M243.55,69.46c17.99-1.54,27.75,22.68,8.39,32.15-36.36,17.79-48.74-28.7-8.39-32.15Z"/>
      <path class="cls-1" d="M470.4,157.25c22.85-4.97,37.59,34.88,15.64,41.53-20.56,6.22-41.03-36.01-15.64-41.53Z"/>
      <path class="cls-1" d="M521.76,349.99c10.8-3.24,22.46,2.41,23.79,14.05,1.33,11.6-2.58,28.14-16.47,29.39-24.09,2.17-21.64-39.15-7.32-43.44Z"/>
      <path class="cls-1" d="M80.63,392.83c27.17-8.16,39.46,47.26,6.15,42.27-16.58-2.48-22.67-37.31-6.15-42.27Z"/>
      <path class="cls-1" d="M526.08,626.41c.79.67,9.94,15.12,10.35,16.43,6.77,21.5-25.01,34.48-35.92,5.91-7.9-20.68,11.83-34.07,25.57-22.34Z"/>
      <path class="cls-1" d="M60.52,262.44c5.95-5.46,13.84-5.68,20.56-1.56,13.03,7.99,10.43,46.8-15.39,41.13-14.82-3.25-13.46-31.97-5.17-39.57Z"/>
      <path class="cls-1" d="M753.03,658.38c19.65-5.79,30.94,13.3,17.78,28.47-19.74,22.76-48.06,2.01-31.22-18.37,1.18-1.43,12.08-9.69,13.44-10.1Z"/>
      <path class="cls-1" d="M363.31,75.91c11.98-2.72,32.83,5.42,32.84,19.89.02,24.55-40.39,16.85-42.85-.17-1.23-8.46.75-17.61,10.01-19.72Z"/>
      <path class="cls-1" d="M798.05,602.69c29.14-2.81,18.39,44.65-4,43.38-25.12-1.42-14.33-41.62,4-43.38Z"/>
      <path class="cls-1" d="M679.32,723.65c-23.37-18.82,23.46-45.54,35.93-26.28,13.46,20.79-22.11,37.41-35.93,26.28Z"/>
      <path class="cls-1" d="M620.32,696.78c11.9-2.05,32.13,4.29,30.53,19.82-2.6,25.32-51.15,15.9-44.08-7.37,1.37-4.51,8.86-11.64,13.55-12.45Z"/>
      <path class="cls-1" d="M84.94,366.08c-21.93,21.94-43.54-28.99-20.26-38.46,23.55-9.57,30.43,28.28,20.26,38.46Z"/>
      <path class="cls-1" d="M814.68,536.8c24.01,0,23.4,50.03-5.96,43.55-16.71-3.69-15.46-43.55,5.96-43.55Z"/>
      <path class="cls-1" d="M888.04,245.02c16.04-2.74,37.3,10.88,45.11,24.61,8.43,14.82,12.49,43.1-11.36,41.49-19.07-1.28-11.93-21.67-20.42-28.98-6.23-5.37-18.45-1.61-24.56-9.7-8.1-10.73-1.73-25.21,11.24-27.42Z"/>
    </g>
  </g>
</svg>