<svg width="56" height="74" viewBox="0 0 56 74" fill="none" xmlns="http://www.w3.org/2000/svg">
<g clip-path="url(#clip0_1788_1088)">
<path d="M2.05379 52.1966C1.91603 51.7257 -0.489417 50.0954 0.0898687 49.2029L19.1816 36.5536C19.8174 34.1362 18.9485 31.0125 19.3794 28.6688C19.5984 27.4812 21.0254 26.6449 21.3256 25.6857C21.7636 24.2767 21.3468 22.3723 21.64 20.7279C22.5902 15.4608 26.4262 8.91831 27.4011 3.61613C27.4717 3.24017 27.6413 2.39336 27.4364 2.16497C26.8253 2.04902 25.9175 1.9928 26.073 1.0687L27.4682 1.03356L27.6625 0.0110749C29.2838 -0.185692 27.7402 1.63089 29.9549 1.0687C30.1138 1.9928 29.2025 2.04902 28.5914 2.16497C28.4113 2.36526 28.5279 2.98367 28.5703 3.31044C29.2202 8.41585 33.4412 15.4819 34.3878 20.7279C34.6845 22.3723 34.2642 24.2732 34.7022 25.6857C35.0024 26.6484 36.4295 27.4812 36.6485 28.6688C36.9346 30.2078 36.2988 36.1811 36.7226 36.8522L55.9309 49.1959C56.4184 49.9478 53.9741 51.9612 53.9741 52.1931V73.6266H2.05379V52.1931V52.1966ZM33.1374 20.7489L28.0157 5.28514L22.894 20.7489H33.1374ZM33.4907 21.8031H23.4238C23.3496 21.8031 23.2331 21.5641 23.0706 21.5325C22.3924 21.5887 22.4877 23.1558 22.5231 23.7496C22.5478 24.1678 22.4595 24.6035 22.7067 24.9865L23.0706 25.2395C23.2154 25.25 23.3355 24.9689 23.4238 24.9689H33.4907V21.8066V21.8031ZM34.9035 28.1277C34.9177 27.3055 33.6991 26.1671 32.9538 26.0265C31.4243 25.7349 25.4831 25.8298 23.7558 25.9984C22.4524 26.1249 21.4034 26.7328 21.1278 28.1277H34.9035ZM35.61 29.1818H20.4214V72.7517H21.8343V63.0891C21.8343 60.5311 25.6738 55.4151 28.0157 54.1151C30.4812 55.5416 34.1971 60.6787 34.1971 63.4404V72.7517H35.61V29.1818ZM19.3617 38.3175L1.51336 49.5578C1.29436 49.8529 2.82028 51.3182 2.93685 51.3182H18.8319L19.3617 50.7911V38.3175ZM36.6697 51.3182H53.0945C53.2076 51.3182 54.7335 49.8529 54.518 49.5578L36.6697 38.3175V51.3182ZM19.3617 52.3723H3.11346V72.7517H19.3617V52.3723ZM52.9179 52.3723H36.6697V72.7517H52.9179V52.3723ZM31.7245 59.751C31.0852 58.9077 28.9341 55.5241 28.0157 55.5241C27.0973 55.5241 24.9462 58.9077 24.3068 59.751H31.7245ZM27.4859 60.8051C26.1577 60.4995 27.2209 62.5339 27.0761 63.0504L26.7865 63.4545L23.9572 63.6161C24.54 66.1881 24.54 69.4805 23.9572 72.042H27.4894V60.8016L27.4859 60.8051ZM28.5455 72.049L31.3572 72.2528L32.0354 71.8241C31.8446 69.5999 31.6751 67.425 31.7104 65.1832C31.7316 63.8621 32.869 61.7222 31.3748 60.8051L31.3819 63.458L28.5455 63.2647V72.049Z" fill="#94A760"/>
<path d="M25.0105 40.2492C25.1482 38.7453 26.4587 33.8472 27.2075 32.5963C27.476 32.1466 27.5643 31.869 28.1859 31.9955C29.3092 34.9997 30.4148 38.0742 30.6585 41.3103C30.7786 42.8915 30.9199 46.9322 30.662 48.3342C30.5914 48.7277 30.4819 48.9913 30.1322 49.2126H25.0105C25.2047 46.3138 24.7455 43.1129 25.0105 40.2527V40.2492ZM29.1891 39.3075C29.5953 38.6223 28.306 35.1824 27.6596 34.4551C27.4088 35.6884 26.1161 37.9723 26.4057 39.1283C26.4975 39.4902 27.1475 39.4762 27.3099 39.7186C27.7974 40.446 26.879 42.1958 27.0945 43.2183L26.0737 43.2393V44.2899H27.4901V47.8001L26.0737 47.8036C26.3386 48.6996 28.8959 48.6013 29.6024 47.9758L28.1895 47.8001L28.2283 44.3145L29.6094 44.2864V43.2358H28.1895C28.2036 42.0552 28.6133 41.3174 27.8645 40.2949L29.1891 39.3075Z" fill="#94A760"/>
<path d="M46.912 69.5888L41.9457 69.4342C40.9672 65.9802 41.5819 62.333 44.2628 59.7539C44.5948 59.7539 46.912 63.0708 46.912 63.4363V69.5852V69.5888ZM45.8523 63.9598C45.598 63.5768 44.7467 61.0153 43.9308 61.8797C41.8397 64.0933 43.8743 63.9528 44.0615 64.5396C44.2487 65.1264 43.6235 66.444 44.0544 67.2592L42.6733 68.5346C43.8178 68.4187 45.3084 68.9528 46.202 68.0076L44.8421 67.7897C44.0403 66.5108 45.5556 66.1242 44.4571 64.8909L45.8488 63.9633L45.8523 63.9598Z" fill="#94A760"/>
<path d="M9.16996 69.54C8.70724 66.0719 8.76729 62.1893 11.7662 59.7578C14.2917 62.488 14.818 65.3551 14.3659 69.0129C14.0127 70.0846 10.2261 69.4556 9.16996 69.54ZM11.9392 61.5111C11.1621 60.8541 10.6535 63.6405 10.1837 63.7986C11.8439 64.3994 10.9467 64.9967 11.0491 65.9208C11.1869 67.1787 12.2289 67.2455 9.83049 68.008C10.7135 68.9497 12.2077 68.4226 13.3592 68.535L11.9746 67.2525C12.3101 65.7908 11.2964 64.3889 13.0307 63.7775L11.9428 61.5111H11.9392Z" fill="#94A760"/>
</g>
<defs>
<clipPath id="clip0_1788_1088">
<rect width="56" height="73.6296" fill="white"/>
</clipPath>
</defs>
</svg>
