<?xml version="1.0" encoding="UTF-8"?>
<svg id="Layer_1" data-name="Layer 1" xmlns="http://www.w3.org/2000/svg" viewBox="0 0 2960.56 1257.61">
  <defs>
    <style>
      .cls-1 {
        fill: #fdfcef;
      }

      .cls-2 {
        opacity: .25;
      }
    </style>
  </defs>
  <g>
    <g>
      <path class="cls-1" d="M682,455.09c-34.47,101.7-76.27,182.38-125.43,242.04-49.16,59.68-101.07,102.11-155.69,127.32-54.64,25.21-108.85,37.82-162.62,37.82h-17.65c-5.89,0-11.78-.43-17.65-1.26-36.14-3.37-69.55-13.87-100.22-31.52-30.69-17.65-55.47-42.23-74.38-73.75-18.91-31.52-28.36-68.7-28.36-111.57,0-12.61,1.04-26.04,3.15-40.34,2.09-14.28,5.24-28.99,9.45-44.12,8.39-29.41,22.89-57.36,43.49-83.83,20.58-26.47,46.01-48.95,76.27-67.44-14.3-22.69-25.02-47.06-32.15-73.12-7.15-26.04-10.72-52.1-10.72-78.16,0-34.45,6.09-67.44,18.28-98.96,12.17-31.52,30.89-58.19,56.1-80.05,31.93-28.56,66.6-48.73,104-60.51C305.27,5.89,343.72,0,383.23,0s82.57,4.85,124.17,14.5c41.6,9.67,81.72,21.86,120.39,36.56,38.65,14.71,74.38,29.62,107.15,44.75,32.78,15.13,60.92,27.73,84.46,37.82,32.78-31.93,64.08-53.77,93.92-65.55,29.82-11.76,56.51-17.65,80.05-17.65,17.65,0,32.56,2.32,44.75,6.93,12.17,4.63,21.21,10.3,27.1,17.02,4.2,4.22,6.3,9.26,6.3,15.13s-2.11,8.82-6.3,8.82c-3.37,0-6.74-2.09-10.09-6.3-9.26-11.76-19.76-19.95-31.52-24.58-11.78-4.61-23.95-6.93-36.56-6.93-27.73,0-56.1,8.63-85.09,25.84-28.99,17.24-51.9,35.1-68.7,53.58,20.17,6.74,44.95,14.08,74.38,22.06,29.41,8,60.92,14.93,94.55,20.8,33.6,5.89,66.81,8.82,99.59,8.82,36.97,0,71.23-4.83,102.74-14.5,31.52-9.65,56.93-27.52,76.27-53.58,5.87-6.72,10.91-10.09,15.13-10.09s6.3,2.52,6.3,7.56-2.11,9.67-6.3,13.87c-18.5,21.02-44.97,38.67-79.42,52.95-34.47,14.3-77.75,21.43-129.85,21.43-36.14,0-76.07-4.2-119.76-12.61-43.71-8.39-92.03-22.26-144.97-41.6-13.45,15.13-27.54,36.14-42.23,63.03-14.71,26.91-28.36,54.84-40.97,83.83-12.61,28.99-23.32,55.27-32.15,78.79-8.82,23.54-14.08,39.08-15.76,46.64l-3.78,15.13M218.09,842.1c47.06,0,90.96-11.98,131.74-35.93,40.75-23.95,78.16-55.25,112.2-93.92,34.04-38.65,65.12-81.09,93.29-127.32,28.15-46.21,57.07-101.42,78.94-145.98-20.17-2.52-118.65,9.83-141.34,17.39-1.69.85-3.37,1.26-5.04,1.26-2.52,0-3.78-1.26-3.78-3.78,0-4.2,2.52-7.56,7.56-10.09,11.76-5.04,24.37-8.61,37.82-10.72,13.43-2.09,105.3-14.84,116.23-13.16,21.84-44.54,33.15-69.6,49.54-105.34,16.39-35.71,30.04-61.97,40.97-78.79,22.69-35.3,45.38-64.29,68.07-86.98-28.58-10.91-65.77-24.15-111.57-39.71-45.82-15.54-95.39-29.41-148.75-41.6-53.38-12.17-105.7-18.28-156.95-18.28-38.67,0-75.01,4.63-109.04,13.87-34.04,9.26-64.1,24.8-90.14,46.64-21.86,18.5-38.88,43.08-51.06,73.75-12.19,30.69-18.28,62.83-18.28,96.44,0,21.02,2.52,41.6,7.56,61.77,5.04,20.17,13.02,39.08,23.95,56.73,38.65-20.17,77.73-30.26,117.24-30.26,30.26,0,58.4,7.15,84.46,21.43,26.04,14.3,45.8,38.25,59.25,71.86,21-10.91,39.08-25,54.21-42.23,15.13-17.22,25.21-38.02,30.26-62.4,1.67-5.87,4.61-8.82,8.82-8.82s5.46,3.78,3.78,11.35c-8.41,30.26-20.6,55.05-36.56,74.38-15.97,19.34-33.62,34.47-52.95,45.38,5.87,17.65,8.82,35.73,8.82,54.21,0,32.78-8.19,63.03-24.58,90.77-16.39,27.73-38.04,49.8-64.92,66.18-26.91,16.39-56.31,24.58-88.24,24.58-13.45,0-27.95-3.35-43.49-10.09-15.56-6.72-26.69-14.28-33.41-22.69-3.37-3.35-5.04-7.13-5.04-11.35s1.67-6.3,5.04-6.3c5.04,0,10.5,3.37,16.39,10.09,6.72,7.56,17.65,13.45,32.78,17.65,15.13,4.22,28.15,6.3,39.08,6.3,24.37,0,47.06-7.76,68.07-23.32,21-15.54,38.02-35.93,51.06-61.14,13.02-25.21,19.54-51.69,19.54-79.42,0-14.28-2.11-28.99-6.3-44.12-13.45,5.04-26.91,8.63-40.34,10.72-13.45,2.11-26.91,3.15-40.34,3.15-15.97,0-31.1-1.26-45.38-3.78-48.75-10.09-88.24-33.19-118.5-69.33-19.34,15.97-36.14,35.73-50.43,59.25-14.3,23.54-26.06,48.75-35.3,75.64-5.04,15.13-8.63,29.84-10.72,44.12-2.11,14.3-3.15,28.17-3.15,41.6,0,36.99,7.56,69.77,22.69,98.33,15.13,28.58,35.49,51.06,61.14,67.44,25.63,16.39,53.99,24.58,85.09,24.58ZM305.07,489.13c13.43,0,27.3-1.26,41.6-3.78,14.28-2.52,28.15-6.72,41.6-12.61-10.93-30.26-27.32-52.51-49.16-66.81-21.86-14.28-45.82-21.43-71.86-21.43-36.14,0-70.6,11.78-103.37,35.3,11.76,15.13,26.47,28.36,44.12,39.71,17.65,11.35,38.23,19.97,61.77,25.84,11.76,2.52,23.52,3.78,35.3,3.78Z"/>
      <path class="cls-1" d="M1122.58,378.95v-1.26c-.85,0-3.37-.41-7.56-1.26-4.22-.83-9.67-1.26-16.39-1.26-12.61,0-29.43,2.95-50.43,8.82-21.02,5.89-46.23,19.34-75.64,40.34-22.69-6.72-47.27-11.76-73.75-15.13-26.47-3.35-53.16-5.04-80.05-5.04-39.51,0-81.94,4.85-127.32,14.5-10.78,2.3-21.51,4.91-32.22,7.82,7.35,2.56,14.51,5.62,21.49,9.07,42.97-10.81,89.81-16.26,140.58-16.26,25.21,0,48.95,1.69,71.23,5.04,22.26,3.37,42.64,8.41,61.14,15.13-33.62,26.91-72.07,67.44-115.35,121.65-43.3,54.21-90.14,128.8-140.56,223.76-21.02,39.51-44.34,83.42-69.97,131.74-25.65,48.34-53.16,95.18-82.57,140.56-29.43,45.38-60.94,84.05-94.55,115.98-25.21-10.09-50.01-19.32-74.38-27.73-24.39-8.39-47.49-12.61-69.33-12.61-15.97,0-31.1,2.95-45.38,8.82-14.3,5.89-25.43,14.3-33.41,25.21-8,10.93-11.98,22.28-11.98,34.04,0,14.28,6.5,27.3,19.54,39.08,13.02,11.76,33.41,17.65,61.14,17.65s56.1-6.93,87.61-20.8c31.52-13.87,58.19-27.54,80.05-40.97,10.08,4.22,20.8,8.63,32.15,13.24,11.35,4.61,23.74,8.61,37.19,11.98,16.8,4.2,34.04,7.35,51.69,9.46,17.65,2.09,34.86,3.15,51.69,3.15,48.73,0,95.37-7.56,139.93-22.69,44.54-15.13,84.46-35.49,119.76-61.14,35.3-25.63,63.23-55.03,83.83-88.24,20.58-33.19,30.89-67.86,30.89-104,0-41.17-10.08-73.12-30.26-95.81-20.17-22.69-45.82-39.49-76.9-50.43-31.1-10.91-62.62-18.48-94.55-22.69,31.93-2.52,64.49-8.39,97.7-17.65,33.19-9.24,64.29-22.26,93.29-39.08,28.99-16.8,52.32-38.23,69.97-64.29,17.65-26.04,26.47-56.73,26.47-92.03,0-37.82-9.45-68.07-28.36-90.77-18.91-22.69-43.93-39.91-75.01-51.69,21.84-19.32,40.97-31.71,57.36-37.19,16.39-5.46,30.45-8.19,42.23-8.19,5.87,0,11.13.43,15.76,1.26,4.61.85,9.02,1.26,13.24,1.26s6.3-2.09,6.3-6.3c0-3.35-2.11-5.04-6.3-5.04ZM304.43,1242.48c-20.17,0-34.25-3.15-42.23-9.45-8-6.3-11.98-13.67-11.98-22.06,0-9.24,4.83-18.91,14.5-28.99,9.65-10.09,21.63-16.8,35.93-20.17,12.61-2.52,24.78-3.78,36.56-3.78,18.48,0,35.71,2.74,51.69,8.19,15.95,5.48,32.34,11.56,49.16,18.28-41.19,38.65-85.72,57.99-133.63,57.99ZM847.13,815.13c30.67,10.08,56.1,24.8,76.27,44.12,20.17,19.34,30.26,46.23,30.26,80.68v15.13c0,5.04-.85,10.52-2.52,16.39-7.56,40.34-22.69,75.64-45.38,105.89-22.69,30.26-50.23,55.27-82.57,75.01-32.36,19.76-66.81,34.47-103.37,44.12-36.56,9.65-72.07,14.5-106.52,14.5-28.58,0-54.21-2.95-76.9-8.82-9.26-2.52-18.5-5.24-27.73-8.19-9.26-2.94-18.5-6.09-27.73-9.45,51.25-35.3,93.29-75.2,126.06-119.76,32.78-44.54,60.71-90.55,83.83-138.04,23.1-47.47,44.75-92.22,64.92-134.26,30.26,5.04,60.71,12.61,91.4,22.69ZM1029.29,498.71c12.61,21.02,18.91,47.08,18.91,78.16,0,37.82-8.63,69.33-25.84,94.55-17.24,25.21-40.14,45.38-68.7,60.51-28.58,15.13-59.88,26.47-93.92,34.04-34.04,7.56-67.44,13.04-100.22,16.39,8.39-21,21-46.84,37.82-77.53,16.8-30.67,35.93-62.6,57.36-95.81,21.43-33.19,42.64-64.08,63.66-92.66,21-28.56,40.34-50.84,57.99-66.81,22.69,11.78,40.34,28.17,52.95,49.16Z"/>
    </g>
    <g class="cls-2">
      <path class="cls-1" d="M2767.52,681.23c-18.39,0-33.73-3.41-46.03-10.23-12.31-6.83-21.42-15.71-27.35-26.69-5.94-10.96-8.9-22.53-8.9-34.69,0-6.52.89-13.04,2.67-19.57,3.85-13.64,10.38-26.17,19.57-37.58,9.19-11.41,20.91-20.97,35.14-28.69,14.23-7.71,30.83-12.45,49.81-14.23-2.97-3.26-5.49-7.04-7.56-11.34-2.08-4.29-3.27-8.82-3.56-13.57-14.53-4.74-25.06-11.04-31.58-18.9-6.53-7.85-9.79-15.79-9.79-23.8,0-9.19,3.85-17.12,11.56-23.8,7.71-6.67,18.53-10.01,32.47-10.01h6.67c2.07,0,4.29.3,6.67.89.59,0,.89.52.89,1.56s-.6,1.56-1.78,1.56c-1.78,0-3.49-.15-5.12-.45-1.63-.29-3.34-.44-5.11-.44-11.57,0-20.68,2.97-27.35,8.9-6.67,5.93-10.01,12.75-10.01,20.46,0,6.52,2.59,13.12,7.78,19.79,5.18,6.67,13.41,12.23,24.69,16.68,0-1.18.15-2.07.44-2.67,1.78-11.27,6.45-20.46,14.01-27.58,7.56-7.12,16.46-12.45,26.69-16.01,10.23-3.56,20.24-5.34,30.02-5.34,11.27,0,21.13,2.3,29.58,6.89,8.45,4.6,12.68,11.5,12.68,20.68s-3.49,17.05-10.45,22.69c-6.97,5.63-15.64,9.56-26.02,11.79-10.38,2.22-21.06,3.34-32.02,3.34-5.94,0-11.72-.29-17.35-.89-5.63-.59-10.67-1.34-15.12-2.22,0,4.75.59,8.89,1.78,12.45,1.18,3.56,2.51,6.52,4,8.9,1.48-.29,3.11-.45,4.89-.45h4.89c4.45,0,9.04.22,13.79.67,4.74.45,9.49.97,14.23,1.56,9.19,1.19,13.79,4.3,13.79,9.34s-4.6,7.56-13.79,7.56c-6.23,0-12.75-1.04-19.57-3.11-6.83-2.07-13.05-5.18-18.68-9.34-11.56,2.08-23.65,5.86-36.25,11.34-12.61,5.49-23.95,13.42-34.03,23.8-10.08,10.38-17.2,23.73-21.35,40.03-.89,2.97-1.49,6.08-1.78,9.34-.3,3.27-.44,6.53-.44,9.79,0,11.57,2.67,22.39,8.01,32.47,5.34,10.08,13.04,18.24,23.13,24.46,10.08,6.23,22.24,9.34,36.47,9.34,15.12,0,29.42-3.11,42.92-9.34,13.49-6.23,24.98-14.38,34.47-24.46,9.49-10.08,15.57-20.6,18.24-31.58.59-2.67,1.11-5.26,1.56-7.78.45-2.52.67-4.96.67-7.34,0-10.97-3.41-19.05-10.23-24.24-6.83-5.19-14.83-7.79-24.02-7.79s-18.31,2.52-27.35,7.56c-9.05,5.05-15.79,12.31-20.24,21.79-1.19,2.67-2.3,6.08-3.33,10.23-1.04,4.16-1.56,8.31-1.56,12.46,0,4.75,1.04,8.97,3.11,12.68,2.07,3.71,5.93,5.56,11.56,5.56,2.07,0,3.4-.22,4-.67.59-.45,1.48-1.26,2.67-2.45.59-.59,1.33-.89,2.22-.89,1.78,0,2.67,1.04,2.67,3.11s-1.63,4.16-4.89,6.23c-.89.6-1.86.97-2.89,1.11-1.04.15-2.3.22-3.78.22-8.01,0-13.86-3.11-17.57-9.34-3.71-6.23-5.56-12.74-5.56-19.57,0-10.08,2.82-19.05,8.45-26.91,5.63-7.85,13.04-14.68,22.24-20.46,9.19-5.78,19.05-10.9,29.58-15.34,10.52-4.45,20.83-8.37,30.91-11.79,10.08-3.41,18.83-6.6,26.24-9.56,21.35-8.6,36.32-18.38,44.92-29.36,8.6-10.97,12.9-20.61,12.9-28.91,0-5.34-1.41-9.63-4.23-12.9-2.82-3.26-6.6-4.89-11.34-4.89-1.19,0-2.6.15-4.23.45-1.63.3-3.33.89-5.11,1.78-.3.3-.74.44-1.33.44-1.49,0-2.23-.74-2.23-2.22,0-2.07.89-3.26,2.67-3.56,2.67-1.18,5.78-1.78,9.34-1.78,6.82,0,12.9,2.6,18.24,7.78,5.34,5.19,8.01,11.94,8.01,20.24s-4.45,18.17-13.34,28.69c-8.9,10.53-24.76,20.54-47.59,30.02-3.86,1.49-9.94,3.78-18.24,6.9-8.3,3.11-16.76,6.3-25.35,9.56-8.6,3.27-15.28,6.08-20.02,8.45,2.67-1.18,6.23-1.78,10.68-1.78,9.19,0,17.94,3.41,26.24,10.23,8.3,6.83,12.45,16.76,12.45,29.8,0,2.08-.22,4.38-.67,6.89-.45,2.52-.97,5.12-1.56,7.78-3.56,14.23-11.27,26.62-23.13,37.14-11.86,10.53-25.95,18.68-42.25,24.46-16.31,5.78-33.07,8.67-50.26,8.67ZM2828.46,485.08c9.78,0,19.19-.96,28.24-2.89,9.04-1.93,16.46-5.12,22.24-9.56,5.78-4.45,8.67-10.68,8.67-18.68,0-7.41-3.19-12.97-9.56-16.68-6.38-3.7-13.86-5.56-22.46-5.56-8.01,0-16.39,1.56-25.13,4.67-8.75,3.11-16.39,7.86-22.91,14.23-6.53,6.38-10.68,14.31-12.45,23.8-.3,1.19-.45,2.38-.45,3.56s-.15,2.38-.44,3.56c10.08,2.38,21.49,3.56,34.25,3.56ZM2831.13,523.78c3.56,0,6.52-.51,8.9-1.56,2.37-1.04,3.56-2.15,3.56-3.34s-1.26-2.45-3.78-3.78c-2.52-1.33-5.86-2.15-10.01-2.45-3.56,0-7.49.15-11.79.45-4.3.3-8.67.74-13.12,1.33,2.67,2.08,5.41,3.63,8.23,4.67,2.82,1.04,4.82,1.85,6,2.45,2.37.89,4.52,1.49,6.45,1.78,1.93.3,3.78.44,5.56.44Z"/>
    </g>
  </g>
  <g>
    <path class="cls-1" d="M1175.45,535.44c-26.62,0-45.43-6.88-56.45-20.65-5.51-5.96-9.41-13.08-11.7-21.34-2.3-8.26-3.44-16.75-3.44-25.47,0-11.01,1.38-22.14,4.13-33.39,2.75-11.24,6.2-21.68,10.33-31.32,6.42-15.14,14.91-30.4,25.47-45.78,10.55-15.37,23.29-28.33,38.2-38.89,14.91-10.55,31.32-15.83,49.22-15.83,11.93,0,21.34,2.99,28.22,8.95,6.88,5.97,10.33,15.14,10.33,27.54,0,14.23-4.37,28.57-13.08,43.02-8.72,14.46-19.74,26.5-33.04,36.14-13.32,9.64-27.08,14.46-41.3,14.46-12.85,0-24.09-4.58-33.73-13.77-2.75,7.35-5.06,15.49-6.88,24.44-1.84,8.95-2.75,18.02-2.75,27.19,0,14.23,2.86,26.62,8.6,37.17,5.73,10.56,16.18,15.83,31.32,15.83,11.01,0,21.68-2.86,32.01-8.6,10.33-5.73,19.62-12.73,27.88-20.99,9.18-9.64,17.9-19.96,26.16-30.98,8.26-11.02,16.28-23.86,24.09-38.55.91-1.38,1.6-2.06,2.07-2.06,1.83,0,2.75,2.06,2.75,6.2,0,2.75-.92,5.74-2.75,8.95-6.88,12.39-14.92,24.9-24.09,37.52-9.19,12.63-18.59,23.52-28.23,32.7-8.72,8.26-18.13,14.92-28.22,19.96-10.1,5.05-21.8,7.57-35.11,7.57ZM1152.04,408.77c3.21,4.59,6.99,7.92,11.36,9.98,4.36,2.07,8.83,3.1,13.42,3.1,11.02,0,22.48-4.24,34.42-12.74,11.93-8.49,21.57-18.47,28.91-29.94,3.2-5.04,6.08-11.7,8.6-19.96,2.52-8.26,3.78-16.06,3.78-23.4,0-6.42-1.27-12.05-3.78-16.87-2.53-4.82-7.46-7.23-14.8-7.23-8.26,0-18.02,5.06-29.26,15.14-11.25,10.1-21.92,23.18-32.01,39.24-3.22,5.51-6.78,11.94-10.67,19.28-3.91,7.35-7.23,15.14-9.98,23.41Z"/>
    <path class="cls-1" d="M1423.27,517.54c-7.81,6.43-15.49,11.13-23.06,14.11-7.57,2.98-14.57,4.48-20.99,4.48-11.48,0-21-4.02-28.57-12.05-7.57-8.02-11.36-18.7-11.36-32.01,0-7.8,1.83-17.21,5.51-28.22,5.96-16.52,14.91-32.36,26.85-47.5,11.93-15.14,23.4-30.52,34.42-46.12,6.88-9.18,10.33-18.12,10.33-26.85,0-4.58-1.27-8.49-3.79-11.7-2.53-3.2-7-5.04-13.42-5.51-3.68-.91-7.81-1.38-12.39-1.38h-40.62c-2.3,0-4.37-.22-6.2-.69-1.84,11.48-5.62,24.33-11.36,38.55-5.75,14.23-12.28,28.46-19.62,42.68-7.35,14.23-14.46,27.08-21.34,38.55-1.84,2.75-3.44,4.13-4.82,4.13s-2.07-1.38-2.07-4.13c0-3.2.69-5.73,2.07-7.57,9.64-18.81,18.93-37.28,27.88-55.42,8.95-18.12,15.03-37.06,18.24-56.79-10.56-5.96-17.67-16.28-21.34-30.98-.46-2.29-.81-4.48-1.03-6.54-.24-2.07-.34-4.01-.34-5.85,0-8.26,1.72-15.25,5.16-21,3.44-5.73,7.45-8.6,12.05-8.6,6.42,0,11.7,6.2,15.83,18.59.91,3.22,1.6,6.78,2.07,10.67.45,3.9.69,7.69.69,11.36,0,4.13-.12,7.92-.35,11.36-.24,3.44-.58,6.31-1.03,8.6,3.2.92,7.45,1.61,12.73,2.06,5.27.46,11.12.69,17.55.69,9.64,0,19.73-.34,30.29-1.03,10.55-.69,19.5-1.03,26.85-1.03,8.71,0,14.68,1.84,17.9,5.51,3.21,3.68,4.82,8.26,4.82,13.77,0,6.88-1.72,14.35-5.16,22.37-3.44,8.04-6.78,14.8-9.98,20.31-5.97,11.01-11.59,20.77-16.86,29.26-5.28,8.5-11.13,17.55-17.56,27.19-9.64,14.69-16.64,28.12-20.99,40.27-4.37,12.17-6.54,22.37-6.54,30.64,0,14.23,5.27,21.34,15.83,21.34,8.71,0,19.96-6.2,33.73-18.59,8.71-7.8,16.86-17.09,24.44-27.88,7.57-10.78,14.46-21.79,20.65-33.04,6.2-11.24,11.36-20.53,15.49-27.88.91-1.38,1.83-2.07,2.75-2.07,1.83,0,2.75,1.84,2.75,5.51,0,2.75-.69,5.28-2.07,7.57-7.81,14.23-16.76,29.84-26.85,46.81-10.1,16.98-22.49,31.67-37.17,44.06Z"/>
    <path class="cls-1" d="M1606.37,534.06c-13.32,0-23.75-4.13-31.32-12.39-7.57-8.26-11.36-18.59-11.36-30.98,0-5.96,1.14-12.84,3.44-20.65,6.42-20.19,16.63-40.27,30.64-60.23,13.99-19.96,25.58-39.81,34.76-59.55,3.21-6.42,4.82-12.15,4.82-17.21s-1.5-8.83-4.48-11.36c-2.99-2.52-6.54-3.79-10.67-3.79-5.97,0-13.42,2.41-22.37,7.23-8.95,4.82-19.17,13.89-30.63,27.19-6.88,8.26-14.69,18.36-23.41,30.29-8.72,11.94-15.83,22.72-21.34,32.36-9.19,15.61-17.45,31.32-24.78,47.15-7.35,15.83-13.77,30.41-19.28,43.71-4.59,10.56-10.1,17.33-16.52,20.31-6.43,2.99-12.63,4.24-18.59,3.79-5.97-.45-10.56-.45-13.77,0,12.84-25.23,25.47-51.86,37.86-79.85,12.39-27.99,22.94-55.99,31.67-83.99,4.13-12.84,7.57-25.35,10.33-37.52,2.75-12.15,3.89-20.07,3.44-23.75v-1.38c0-3.67,1.83-4.58,5.51-2.75,5.96,3.22,10.09,7.92,12.39,14.11,2.29,6.2,3.44,13.2,3.44,21,0,8.72-1.15,18.02-3.44,27.88-2.3,9.88-5.06,18.7-8.26,26.5,5.96-8.26,12.39-16.63,19.27-25.12,6.88-8.49,14.46-16.63,22.72-24.44,9.64-9.64,19.96-18.01,30.98-25.13,11.01-7.11,22.94-10.67,35.8-10.67s21.45,2.75,27.19,8.26c5.73,5.51,8.6,12.85,8.6,22.03,0,9.64-2.75,20.65-8.26,33.04-5.97,14.23-13.2,28.46-21.68,42.68-8.5,14.23-16.18,28-23.06,41.3-1.38,2.75-3.56,7-6.54,12.74-2.99,5.74-5.62,12.05-7.92,18.93-.93,3.22-1.84,6.54-2.75,9.98-.92,3.44-1.38,7-1.38,10.67,0,4.59,1.03,8.84,3.1,12.73,2.07,3.9,6.08,5.85,12.05,5.85,7.8,0,15.25-2.64,22.37-7.92,7.11-5.27,13.19-10.9,18.24-16.86,10.55-11.47,20.31-24.2,29.26-38.21,8.95-13.99,17.78-28.79,26.5-44.4,1.38-1.83,2.29-2.75,2.75-2.75,1.83,0,2.75,2.07,2.75,6.2,0,2.75-.46,4.82-1.38,6.2-8.26,15.14-16.99,29.94-26.16,44.4-9.19,14.46-20.43,28.34-33.73,41.65-5.97,5.97-12.85,11.25-20.65,15.83-7.81,4.58-16.52,6.88-26.16,6.88Z"/>
    <path class="cls-1" d="M1850.74,534.75c-14.69,0-24.78-4.71-30.29-14.11-5.51-9.4-8.26-19.85-8.26-31.32,0-2.29.35-6.3,1.03-12.05.69-5.73,1.48-11.12,2.41-16.18-6.43,8.72-14.11,18.36-23.06,28.91-8.95,10.56-18.02,19.51-27.19,26.85-14.69,11.94-28,17.9-39.93,17.9s-20.31-4.82-26.5-14.46c-6.2-9.64-9.29-21.79-9.29-36.48,0-18.81,4.13-37.86,12.39-57.14,8.26-19.28,19.16-37.52,32.7-54.73,13.53-17.21,28.57-32.01,45.09-44.4,9.64-6.88,21.45-12.5,35.45-16.86,13.99-4.36,28.11-6.54,42.33-6.54,16.06,0,30.17,2.41,42.34,7.23,12.15,4.82,20.53,11.59,25.13,20.31-9.64,12.39-19.51,27.65-29.6,45.78-10.1,18.14-18.82,34.54-26.16,49.22-5.06,10.1-10.56,22.61-16.52,37.52-5.97,14.92-8.95,27.65-8.95,38.21,0,4.59,1.14,9.19,3.44,13.77,2.29,4.59,6.65,6.88,13.08,6.88,7.34,0,14.46-2.75,21.34-8.26,6.88-5.51,12.62-11.02,17.21-16.52,10.55-11.47,20.19-24.09,28.91-37.86,8.71-13.77,17.44-28.45,26.16-44.06,1.38-1.83,2.75-2.75,4.13-2.75,1.83,0,2.75,1.38,2.75,4.13,0,2.3-.46,4.13-1.38,5.51-7.81,15.14-16.52,30.29-26.16,45.43-9.64,15.15-21.11,29.38-34.42,42.68-6.43,6.43-14,11.94-22.72,16.52-8.72,4.58-17.21,6.88-25.47,6.88ZM1740.6,513.41c8.71,0,18.24-4.7,28.57-14.11,10.33-9.4,20.42-20.88,30.29-34.42,9.86-13.53,18.81-26.61,26.85-39.24,8.02-12.62,14.34-22.37,18.93-29.26,9.64-15.14,18.59-27.76,26.85-37.86,8.26-10.09,21.1-17.9,38.55-23.41.91,0,1.72-.11,2.41-.34.69-.23,1.48-.35,2.41-.35-4.13-6.42-11.01-11.24-20.65-14.46-9.64-3.2-19.05-4.82-28.22-4.82-14.23,0-28,3.9-41.3,11.7-13.32,7.81-25.47,17.67-36.49,29.6-10.56,12.39-20.89,25.93-30.98,40.61-10.1,14.69-18.24,29.6-24.44,44.75-6.2,15.15-9.29,29.6-9.29,43.37,0,7.35,1.26,13.89,3.78,19.62,2.52,5.74,6.77,8.6,12.73,8.6Z"/>
    <path class="cls-1" d="M2076.54,534.06c-13.32,0-23.75-4.13-31.32-12.39-7.57-8.26-11.36-18.59-11.36-30.98,0-5.96,1.14-12.84,3.44-20.65,6.42-20.19,16.63-40.27,30.64-60.23,13.99-19.96,25.58-39.81,34.76-59.55,3.21-6.42,4.82-12.15,4.82-17.21s-1.5-8.83-4.48-11.36c-2.99-2.52-6.54-3.79-10.67-3.79-5.97,0-13.42,2.41-22.37,7.23-8.95,4.82-19.17,13.89-30.63,27.19-6.88,8.26-14.69,18.36-23.41,30.29-8.72,11.94-15.83,22.72-21.34,32.36-9.19,15.61-17.45,31.32-24.78,47.15-7.35,15.83-13.77,30.41-19.28,43.71-4.59,10.56-10.1,17.33-16.52,20.31-6.43,2.99-12.63,4.24-18.59,3.79-5.97-.45-10.56-.45-13.77,0,12.84-25.23,25.47-51.86,37.86-79.85,12.39-27.99,22.94-55.99,31.67-83.99,4.13-12.84,7.57-25.35,10.33-37.52,2.75-12.15,3.89-20.07,3.44-23.75v-1.38c0-3.67,1.83-4.58,5.51-2.75,5.96,3.22,10.09,7.92,12.39,14.11,2.29,6.2,3.44,13.2,3.44,21,0,8.72-1.15,18.02-3.44,27.88-2.3,9.88-5.06,18.7-8.26,26.5,5.96-8.26,12.39-16.63,19.27-25.12,6.88-8.49,14.46-16.63,22.72-24.44,9.64-9.64,19.96-18.01,30.98-25.13,11.01-7.11,22.94-10.67,35.8-10.67s21.45,2.75,27.19,8.26c5.73,5.51,8.6,12.85,8.6,22.03,0,9.64-2.75,20.65-8.26,33.04-5.97,14.23-13.2,28.46-21.68,42.68-8.5,14.23-16.18,28-23.06,41.3-1.38,2.75-3.56,7-6.54,12.74-2.99,5.74-5.62,12.05-7.92,18.93-.93,3.22-1.84,6.54-2.75,9.98-.92,3.44-1.38,7-1.38,10.67,0,4.59,1.03,8.84,3.1,12.73,2.07,3.9,6.08,5.85,12.05,5.85,7.8,0,15.25-2.64,22.37-7.92,7.11-5.27,13.19-10.9,18.24-16.86,10.55-11.47,20.31-24.2,29.26-38.21,8.95-13.99,17.78-28.79,26.5-44.4,1.38-1.83,2.29-2.75,2.75-2.75,1.83,0,2.75,2.07,2.75,6.2,0,2.75-.46,4.82-1.38,6.2-8.26,15.14-16.99,29.94-26.16,44.4-9.19,14.46-20.43,28.34-33.73,41.65-5.97,5.97-12.85,11.25-20.65,15.83-7.81,4.58-16.52,6.88-26.16,6.88Z"/>
    <path class="cls-1" d="M2341.56,534.75c-15.61,0-26.85-5.39-33.73-16.18-6.88-10.78-10.33-24.2-10.33-40.27s2.75-31.89,8.26-47.5l6.88-19.96-25.47,39.24c-6.43,10.1-14.8,21.46-25.13,34.07-10.33,12.63-21.23,23.52-32.7,32.7-14.69,11.94-28,17.9-39.93,17.9s-20.31-4.82-26.5-14.46c-6.2-9.64-9.29-21.79-9.29-36.48,0-10.09,1.38-20.19,4.13-30.29,6.88-25.7,17.44-49.22,31.67-70.56,14.22-21.34,32.12-39.81,53.7-55.42,9.17-6.88,20.88-12.5,35.11-16.86,14.22-4.36,28.45-6.54,42.68-6.54,5.51,0,11.02.46,16.52,1.38,5.51.93,10.55,2.06,15.15,3.44,3.67-8.26,7.91-17.44,12.73-27.54,4.82-10.09,9.64-20.07,14.46-29.94,4.82-9.86,8.83-18.01,12.05-24.44,9.17-18.81,20.65-41.3,34.42-67.46,13.77-26.16,29.83-50.48,48.19-72.97,14.22-17.9,30.63-33.61,49.22-47.15,18.59-13.53,36.59-20.31,54.04-20.31,10.55,0,18.47,3.22,23.75,9.64,5.27,6.43,7.92,14.23,7.92,23.41,0,8.26-1.61,15.83-4.82,22.72-7.35,16.52-18.93,33.97-34.76,52.32-15.83,18.36-32.82,36.14-50.94,53.35-18.13,17.21-34.31,32.7-48.53,46.47-11.94,11.48-22.49,21.46-31.67,29.94-9.19,8.5-17.67,16.87-25.47,25.13-7.81,8.26-16.3,17.45-25.47,27.54-10.1,22.95-19.39,45.9-27.88,68.84-8.5,22.95-15.38,44.29-20.65,64.02-5.28,19.74-7.92,36.26-7.92,49.56,0,18.82,5.73,28.91,17.21,30.29,7.8,0,15.15-2.52,22.03-7.57,6.88-5.05,12.84-10.55,17.9-16.52,10.55-11.47,20.19-24.09,28.91-37.86,8.71-13.77,17.44-28.45,26.16-44.06,1.38-1.83,2.75-2.75,4.13-2.75,1.83,0,2.75,1.38,2.75,4.13,0,2.3-.46,4.13-1.38,5.51-8.26,15.14-17.1,30.29-26.51,45.43-9.41,15.15-20.77,29.38-34.07,42.68-5.97,5.97-12.85,11.36-20.65,16.18-7.81,4.82-16.52,7.23-26.16,7.23ZM2203.88,513.41c8.26,0,18.24-5.61,29.95-16.86,11.7-11.24,23.86-25.23,36.48-41.99,12.62-16.75,24.2-33.15,34.76-49.22,3.2-4.58,7.45-12.15,12.73-22.72,5.27-10.55,10.9-21.91,16.86-34.07,5.96-12.15,11.02-22.83,15.15-32.01-2.75-.91-5.4-1.38-7.92-1.38h-7.92c-14.23,0-28.34,3.78-42.34,11.36-14,7.57-26.5,17.56-37.52,29.95-15.61,16.98-28.69,35.23-39.24,54.73-10.56,19.51-17.9,36.6-22.03,51.28-2.3,8.26-3.44,16.76-3.44,25.47,0,6.88,1.03,12.85,3.1,17.9,2.06,5.06,5.85,7.57,11.36,7.57ZM2398.7,285.55c10.55-11.93,20.41-22.6,29.6-32.01,9.17-9.4,20.41-20.99,33.73-34.76,12.84-12.84,27.64-27.99,44.4-45.44,16.75-17.43,32.58-35.11,47.5-53.01,14.91-17.9,25.81-33.73,32.7-47.5,5.51-11.01,8.26-19.96,8.26-26.85,0-11.46-5.74-17.21-17.21-17.21-14.23,0-29.03,6.54-44.4,19.62-15.38,13.08-30.41,30.87-45.09,53.35-12.39,19.27-24.09,40.27-35.11,62.99-11.01,22.72-21.12,44.64-30.29,65.74-9.19,21.11-17.21,39.48-24.09,55.07Z"/>
    <path class="cls-1" d="M2585.94,534.75c-14.69,0-24.78-4.71-30.29-14.11-5.51-9.4-8.26-19.85-8.26-31.32,0-2.29.35-6.3,1.03-12.05.69-5.73,1.48-11.12,2.41-16.18-6.43,8.72-14.11,18.36-23.06,28.91-8.95,10.56-18.02,19.51-27.19,26.85-14.69,11.94-28,17.9-39.93,17.9s-20.31-4.82-26.5-14.46c-6.2-9.64-9.29-21.79-9.29-36.48,0-18.81,4.13-37.86,12.39-57.14,8.26-19.28,19.16-37.52,32.7-54.73,13.53-17.21,28.57-32.01,45.09-44.4,9.64-6.88,21.45-12.5,35.45-16.86,13.99-4.36,28.11-6.54,42.33-6.54,16.06,0,30.17,2.41,42.34,7.23,12.15,4.82,20.53,11.59,25.13,20.31-9.64,12.39-19.51,27.65-29.6,45.78-10.1,18.14-18.82,34.54-26.16,49.22-5.06,10.1-10.56,22.61-16.52,37.52-5.97,14.92-8.95,27.65-8.95,38.21,0,4.59,1.14,9.19,3.44,13.77,2.29,4.59,6.65,6.88,13.08,6.88,7.34,0,14.46-2.75,21.34-8.26,6.88-5.51,12.62-11.02,17.21-16.52,10.55-11.47,20.19-24.09,28.91-37.86,8.71-13.77,17.44-28.45,26.16-44.06,1.38-1.83,2.75-2.75,4.13-2.75,1.83,0,2.75,1.38,2.75,4.13,0,2.3-.46,4.13-1.38,5.51-7.81,15.14-16.52,30.29-26.16,45.43-9.64,15.15-21.11,29.38-34.42,42.68-6.43,6.43-14,11.94-22.72,16.52-8.72,4.58-17.21,6.88-25.47,6.88ZM2475.79,513.41c8.71,0,18.24-4.7,28.57-14.11,10.33-9.4,20.42-20.88,30.29-34.42,9.86-13.53,18.81-26.61,26.85-39.24,8.02-12.62,14.34-22.37,18.93-29.26,9.64-15.14,18.59-27.76,26.85-37.86,8.26-10.09,21.1-17.9,38.55-23.41.91,0,1.72-.11,2.41-.34.69-.23,1.48-.35,2.41-.35-4.13-6.42-11.01-11.24-20.65-14.46-9.64-3.2-19.05-4.82-28.22-4.82-14.23,0-28,3.9-41.3,11.7-13.32,7.81-25.47,17.67-36.49,29.6-10.56,12.39-20.89,25.93-30.98,40.61-10.1,14.69-18.24,29.6-24.44,44.75-6.2,15.15-9.29,29.6-9.29,43.37,0,7.35,1.26,13.89,3.78,19.62,2.52,5.74,6.77,8.6,12.73,8.6Z"/>
  </g>
  <g>
    <path class="cls-1" d="M1202.83,842.72c-26.62,0-45.43-6.88-56.45-20.65-5.51-5.96-9.41-13.08-11.7-21.34-2.3-8.26-3.44-16.75-3.44-25.47,0-11.01,1.38-22.14,4.13-33.39,2.75-11.24,6.2-21.68,10.33-31.32,6.42-15.14,14.91-30.4,25.47-45.78,10.55-15.37,23.29-28.33,38.2-38.89,14.91-10.55,31.32-15.83,49.22-15.83,11.93,0,21.34,2.99,28.22,8.95,6.88,5.97,10.33,15.14,10.33,27.54,0,14.23-4.37,28.57-13.08,43.02-8.72,14.46-19.74,26.5-33.04,36.14-13.32,9.64-27.08,14.46-41.3,14.46-12.85,0-24.09-4.58-33.73-13.77-2.75,7.35-5.06,15.49-6.88,24.44-1.84,8.95-2.75,18.02-2.75,27.19,0,14.23,2.86,26.62,8.6,37.17,5.73,10.56,16.18,15.83,31.32,15.83,11.01,0,21.68-2.86,32.01-8.6,10.33-5.73,19.62-12.73,27.88-20.99,9.18-9.64,17.9-19.96,26.16-30.98,8.26-11.02,16.28-23.86,24.09-38.55.91-1.38,1.6-2.06,2.07-2.06,1.83,0,2.75,2.06,2.75,6.2,0,2.75-.92,5.74-2.75,8.95-6.88,12.39-14.92,24.9-24.09,37.52-9.19,12.63-18.59,23.52-28.23,32.7-8.72,8.26-18.13,14.92-28.22,19.96-10.1,5.05-21.8,7.57-35.11,7.57ZM1179.43,716.06c3.21,4.59,6.99,7.92,11.36,9.98,4.36,2.07,8.83,3.1,13.42,3.1,11.02,0,22.48-4.24,34.42-12.74,11.93-8.49,21.57-18.47,28.91-29.94,3.2-5.04,6.08-11.7,8.6-19.96,2.52-8.26,3.78-16.06,3.78-23.4,0-6.42-1.27-12.05-3.78-16.87-2.53-4.82-7.46-7.23-14.8-7.23-8.26,0-18.02,5.06-29.26,15.14-11.25,10.1-21.92,23.18-32.01,39.24-3.22,5.51-6.78,11.94-10.67,19.28-3.91,7.35-7.23,15.14-9.98,23.41Z"/>
    <path class="cls-1" d="M1450.65,824.82c-7.81,6.43-15.49,11.13-23.06,14.11-7.57,2.98-14.57,4.48-20.99,4.48-11.48,0-21-4.02-28.57-12.05-7.57-8.02-11.36-18.7-11.36-32.01,0-7.8,1.83-17.21,5.51-28.22,5.96-16.52,14.91-32.36,26.85-47.5,11.93-15.14,23.4-30.52,34.42-46.12,6.88-9.18,10.33-18.12,10.33-26.85,0-4.58-1.27-8.49-3.79-11.7-2.53-3.2-7-5.04-13.42-5.51-3.68-.91-7.81-1.38-12.39-1.38h-40.62c-2.3,0-4.37-.22-6.2-.69-1.84,11.48-5.62,24.33-11.36,38.55-5.75,14.23-12.28,28.46-19.62,42.68-7.35,14.23-14.46,27.08-21.34,38.55-1.84,2.75-3.44,4.13-4.82,4.13s-2.07-1.38-2.07-4.13c0-3.2.69-5.73,2.07-7.57,9.64-18.81,18.93-37.28,27.88-55.42,8.95-18.12,15.03-37.06,18.24-56.79-10.56-5.96-17.67-16.28-21.34-30.98-.46-2.29-.81-4.48-1.03-6.54-.24-2.07-.34-4.01-.34-5.85,0-8.26,1.72-15.25,5.16-21,3.44-5.73,7.45-8.6,12.05-8.6,6.42,0,11.7,6.2,15.83,18.59.91,3.22,1.6,6.78,2.07,10.67.45,3.9.69,7.69.69,11.36,0,4.13-.12,7.92-.35,11.36-.24,3.44-.58,6.31-1.03,8.6,3.2.92,7.45,1.61,12.73,2.06,5.27.46,11.12.69,17.55.69,9.64,0,19.73-.34,30.29-1.03,10.55-.69,19.5-1.03,26.85-1.03,8.71,0,14.68,1.84,17.9,5.51,3.21,3.68,4.82,8.26,4.82,13.77,0,6.88-1.72,14.35-5.16,22.37-3.44,8.04-6.78,14.8-9.98,20.31-5.97,11.01-11.59,20.77-16.86,29.26-5.28,8.5-11.13,17.55-17.56,27.19-9.64,14.69-16.64,28.12-20.99,40.27-4.37,12.17-6.54,22.37-6.54,30.64,0,14.23,5.27,21.34,15.83,21.34,8.71,0,19.96-6.2,33.73-18.59,8.71-7.8,16.86-17.09,24.44-27.88,7.57-10.78,14.46-21.79,20.65-33.04,6.2-11.24,11.36-20.53,15.49-27.88.91-1.38,1.83-2.07,2.75-2.07,1.83,0,2.75,1.84,2.75,5.51,0,2.75-.69,5.28-2.07,7.57-7.81,14.23-16.76,29.84-26.85,46.81-10.1,16.98-22.49,31.67-37.17,44.06Z"/>
    <path class="cls-1" d="M1633.76,841.34c-13.32,0-23.75-4.13-31.32-12.39-7.57-8.26-11.36-18.59-11.36-30.98,0-5.96,1.14-12.84,3.44-20.65,6.42-20.19,16.63-40.27,30.64-60.23,13.99-19.96,25.58-39.81,34.76-59.55,3.21-6.42,4.82-12.15,4.82-17.21s-1.5-8.83-4.48-11.36c-2.99-2.52-6.54-3.79-10.67-3.79-5.97,0-13.42,2.41-22.37,7.23-8.95,4.82-19.17,13.89-30.63,27.19-6.88,8.26-14.69,18.36-23.41,30.29-8.72,11.94-15.83,22.72-21.34,32.36-9.19,15.61-17.45,31.32-24.78,47.15-7.35,15.83-13.77,30.41-19.28,43.71-4.59,10.56-10.1,17.33-16.52,20.31-6.43,2.99-12.63,4.24-18.59,3.79-5.97-.45-10.56-.45-13.77,0,12.84-25.23,25.47-51.86,37.86-79.85,12.39-27.99,22.94-55.99,31.67-83.99,4.13-12.84,7.57-25.35,10.33-37.52,2.75-12.15,3.89-20.07,3.44-23.75v-1.38c0-3.67,1.83-4.58,5.51-2.75,5.96,3.22,10.09,7.92,12.39,14.11,2.29,6.2,3.44,13.2,3.44,21,0,8.72-1.15,18.02-3.44,27.88-2.3,9.88-5.06,18.7-8.26,26.5,5.96-8.26,12.39-16.63,19.27-25.12,6.88-8.49,14.46-16.63,22.72-24.44,9.64-9.64,19.96-18.01,30.98-25.13,11.01-7.11,22.94-10.67,35.8-10.67s21.45,2.75,27.19,8.26c5.73,5.51,8.6,12.85,8.6,22.03,0,9.64-2.75,20.65-8.26,33.04-5.97,14.23-13.2,28.46-21.68,42.68-8.5,14.23-16.18,28-23.06,41.3-1.38,2.75-3.56,7-6.54,12.74-2.99,5.74-5.62,12.05-7.92,18.93-.93,3.22-1.84,6.54-2.75,9.98-.92,3.44-1.38,7-1.38,10.67,0,4.59,1.03,8.84,3.1,12.73,2.07,3.9,6.08,5.85,12.05,5.85,7.8,0,15.25-2.64,22.37-7.92,7.11-5.27,13.19-10.9,18.24-16.86,10.55-11.47,20.31-24.2,29.26-38.21,8.95-13.99,17.78-28.79,26.5-44.4,1.38-1.83,2.29-2.75,2.75-2.75,1.83,0,2.75,2.07,2.75,6.2,0,2.75-.46,4.82-1.38,6.2-8.26,15.14-16.99,29.94-26.16,44.4-9.19,14.46-20.43,28.34-33.73,41.65-5.97,5.97-12.85,11.25-20.65,15.83-7.81,4.58-16.52,6.88-26.16,6.88Z"/>
    <path class="cls-1" d="M1878.13,842.03c-14.69,0-24.78-4.71-30.29-14.11-5.51-9.4-8.26-19.85-8.26-31.32,0-2.29.35-6.3,1.03-12.05.69-5.73,1.48-11.12,2.41-16.18-6.43,8.72-14.11,18.36-23.06,28.91-8.95,10.56-18.02,19.51-27.19,26.85-14.69,11.94-28,17.9-39.93,17.9s-20.31-4.82-26.5-14.46c-6.2-9.64-9.29-21.79-9.29-36.48,0-18.81,4.13-37.86,12.39-57.14,8.26-19.28,19.16-37.52,32.7-54.73,13.53-17.21,28.57-32.01,45.09-44.4,9.64-6.88,21.45-12.5,35.45-16.86,13.99-4.36,28.11-6.54,42.33-6.54,16.06,0,30.17,2.41,42.34,7.23,12.15,4.82,20.53,11.59,25.13,20.31-9.64,12.39-19.51,27.65-29.6,45.78-10.1,18.14-18.82,34.54-26.16,49.22-5.06,10.1-10.56,22.61-16.52,37.52-5.97,14.92-8.95,27.65-8.95,38.21,0,4.59,1.14,9.19,3.44,13.77,2.29,4.59,6.65,6.88,13.08,6.88,7.34,0,14.46-2.75,21.34-8.26,6.88-5.51,12.62-11.02,17.21-16.52,10.55-11.47,20.19-24.09,28.91-37.86,8.71-13.77,17.44-28.45,26.16-44.06,1.38-1.83,2.75-2.75,4.13-2.75,1.83,0,2.75,1.38,2.75,4.13,0,2.3-.46,4.13-1.38,5.51-7.81,15.14-16.52,30.29-26.16,45.43-9.64,15.15-21.11,29.38-34.42,42.68-6.43,6.43-14,11.94-22.72,16.52-8.72,4.58-17.21,6.88-25.47,6.88ZM1767.98,820.69c8.71,0,18.24-4.7,28.57-14.11,10.33-9.4,20.42-20.88,30.29-34.42,9.86-13.53,18.81-26.61,26.85-39.24,8.02-12.62,14.34-22.37,18.93-29.26,9.64-15.14,18.59-27.76,26.85-37.86,8.26-10.09,21.1-17.9,38.55-23.41.91,0,1.72-.11,2.41-.34.69-.23,1.48-.35,2.41-.35-4.13-6.42-11.01-11.24-20.65-14.46-9.64-3.2-19.05-4.82-28.22-4.82-14.23,0-28,3.9-41.3,11.7-13.32,7.81-25.47,17.67-36.49,29.6-10.56,12.39-20.89,25.93-30.98,40.61-10.1,14.69-18.24,29.6-24.44,44.75-6.2,15.15-9.29,29.6-9.29,43.37,0,7.35,1.26,13.89,3.78,19.62,2.52,5.74,6.77,8.6,12.73,8.6Z"/>
    <path class="cls-1" d="M2110.8,824.82c-7.81,6.43-15.49,11.13-23.06,14.11-7.57,2.98-14.57,4.48-20.99,4.48-11.48,0-21-4.02-28.57-12.05-7.57-8.02-11.36-18.7-11.36-32.01,0-7.8,1.83-17.21,5.51-28.22,5.96-16.52,14.91-32.36,26.85-47.5,11.93-15.14,23.4-30.52,34.42-46.12,6.88-9.18,10.33-18.12,10.33-26.85,0-4.58-1.27-8.49-3.79-11.7-2.53-3.2-7-5.04-13.42-5.51-3.68-.91-7.81-1.38-12.39-1.38h-40.62c-2.3,0-4.37-.22-6.2-.69-1.84,11.48-5.62,24.33-11.36,38.55-5.75,14.23-12.28,28.46-19.62,42.68-7.35,14.23-14.46,27.08-21.34,38.55-1.84,2.75-3.44,4.13-4.82,4.13s-2.07-1.38-2.07-4.13c0-3.2.69-5.73,2.07-7.57,9.64-18.81,18.93-37.28,27.88-55.42,8.95-18.12,15.03-37.06,18.24-56.79-10.56-5.96-17.67-16.28-21.34-30.98-.46-2.29-.81-4.48-1.03-6.54-.24-2.07-.34-4.01-.34-5.85,0-8.26,1.72-15.25,5.16-21,3.44-5.73,7.45-8.6,12.05-8.6,6.42,0,11.7,6.2,15.83,18.59.91,3.22,1.6,6.78,2.07,10.67.45,3.9.69,7.69.69,11.36,0,4.13-.12,7.92-.35,11.36-.24,3.44-.58,6.31-1.03,8.6,3.2.92,7.45,1.61,12.73,2.06,5.27.46,11.12.69,17.55.69,9.64,0,19.73-.34,30.29-1.03,10.55-.69,19.5-1.03,26.85-1.03,8.71,0,14.68,1.84,17.9,5.51,3.21,3.68,4.82,8.26,4.82,13.77,0,6.88-1.72,14.35-5.16,22.37-3.44,8.04-6.78,14.8-9.98,20.31-5.97,11.01-11.59,20.77-16.86,29.26-5.28,8.5-11.13,17.55-17.56,27.19-9.64,14.69-16.64,28.12-20.99,40.27-4.37,12.17-6.54,22.37-6.54,30.64,0,14.23,5.27,21.34,15.83,21.34,8.71,0,19.96-6.2,33.73-18.59,8.71-7.8,16.86-17.09,24.44-27.88,7.57-10.78,14.46-21.79,20.65-33.04,6.2-11.24,11.36-20.53,15.49-27.88.91-1.38,1.83-2.07,2.75-2.07,1.83,0,2.75,1.84,2.75,5.51,0,2.75-.69,5.28-2.07,7.57-7.81,14.23-16.76,29.84-26.85,46.81-10.1,16.98-22.49,31.67-37.17,44.06Z"/>
    <path class="cls-1" d="M2352.77,685.77c8.49-22.94,17.78-45.89,27.88-68.84,9.17-10.09,17.66-19.28,25.47-27.54,7.8-8.26,16.28-16.63,25.47-25.13,9.17-8.49,19.73-18.47,31.67-29.94,3-2.91,6.11-5.91,9.29-8.97-4.88-.61-9.74-1.33-14.56-2.29-1,1.01-2.02,2.03-3,3.01-13.32,13.77-24.56,25.36-33.73,34.76-9.19,9.41-19.05,20.08-29.6,32.01,6.88-15.6,14.91-33.96,24.09-55.07,5.1-11.74,10.52-23.75,16.19-35.99-.07-4.44-.18-8.88-.33-13.32-.47-14.05-1.13-28.18-.82-42.26-4.03,6.76-7.9,13.64-11.6,20.66-13.77,26.16-25.25,48.65-34.42,67.46-3.22,6.43-7.23,14.57-12.05,24.44-4.82,9.87-9.64,19.85-14.46,29.94-4.82,10.1-9.07,19.27-12.73,27.54-4.59-1.38-9.64-2.52-15.15-3.44-5.51-.91-11.01-1.38-16.52-1.38-14.23,0-28.46,2.18-42.68,6.54-14.23,4.37-25.93,9.98-35.11,16.86-21.58,15.61-39.47,34.08-53.7,55.42-14.23,21.34-24.78,44.86-31.67,70.56-2.75,10.1-4.13,20.2-4.13,30.29,0,14.69,3.1,26.85,9.29,36.48,6.2,9.64,15.03,14.46,26.5,14.46s25.23-5.96,39.93-17.9c11.47-9.17,22.37-20.07,32.7-32.7,10.33-12.62,18.69-23.97,25.13-34.07l25.47-39.24-6.88,19.96c-5.51,15.61-8.26,31.44-8.26,47.5s3.44,29.49,10.33,40.27c6.88,10.79,18.12,16.18,33.73,16.18,9.64,0,18.35-2.41,26.16-7.23,7.8-4.82,14.68-10.21,20.65-16.18,13.31-13.31,24.66-27.54,34.08-42.68,9.4-15.14,18.24-30.29,26.5-45.43.91-1.38,1.38-3.2,1.38-5.51,0-2.75-.93-4.13-2.75-4.13-1.38,0-2.75.93-4.13,2.75-8.72,15.61-17.45,30.29-26.16,44.06-8.72,13.77-18.36,26.4-28.91,37.86-5.06,5.97-11.01,11.48-17.9,16.52-6.88,5.06-14.23,7.57-22.03,7.57-11.48-1.38-17.21-11.47-17.21-30.29,0-13.31,2.64-29.83,7.92-49.56,5.27-19.73,12.15-41.07,20.65-64.02ZM2310.77,689.9c-5.28,10.56-9.53,18.14-12.73,22.72-10.56,16.07-22.15,32.47-34.77,49.22-12.63,16.76-24.78,30.75-36.48,41.99-11.7,11.25-21.68,16.86-29.95,16.86-5.51,0-9.29-2.52-11.36-7.57-2.07-5.04-3.1-11.01-3.1-17.9,0-8.71,1.14-17.21,3.44-25.47,4.13-14.68,11.47-31.77,22.03-51.28,10.55-19.5,23.63-37.74,39.24-54.73,11.01-12.39,23.51-22.37,37.52-29.95,13.99-7.57,28.11-11.36,42.34-11.36h7.92c2.52,0,5.16.46,7.92,1.38-4.13,9.19-9.19,19.86-15.15,32.01-5.97,12.17-11.59,23.52-16.86,34.07Z"/>
    <path class="cls-1" d="M2538.97,835.84c-17.45,10.09-34.42,15.14-50.94,15.14-17.45,0-32.47-5.62-45.09-16.86-12.63-11.24-18.93-28.57-18.93-51.97,0-10.09,1.38-20.88,4.13-32.35,2.29-10.09,5.39-19.96,9.29-29.6,3.89-9.64,7.92-18.35,12.05-26.16,11.93-22.48,26.96-42.1,45.09-58.86,18.12-16.75,39.81-25.13,65.05-25.13s41.3,6.66,50.94,19.96c9.64,13.32,14.46,29.6,14.46,48.88,0,7.81-.69,15.83-2.07,24.09-1.84,10.1-4.48,20.2-7.92,30.29-3.44,10.1-8.6,21.58-15.49,34.42,3.67,4.59,8.26,8.5,13.77,11.7,5.51,3.22,11.47,4.82,17.9,4.82,1.83,0,3.55-.11,5.16-.35,1.6-.23,3.32-.57,5.16-1.03,6.42-1.38,13.08-4.82,19.96-10.33,5.96-4.58,12.15-11.93,18.59-22.03,6.42-10.09,11.01-17.66,13.77-22.72,2.75-5.04,5.27-7.57,7.57-7.57,1.38,0,2.07.93,2.07,2.75s-1.38,5.97-4.13,12.39c-3.22,6.88-7.69,14.69-13.42,23.41-5.74,8.72-11.82,15.61-18.24,20.65-8.26,5.97-16.98,10.1-26.16,12.39-1.84.46-3.79.81-5.85,1.03-2.06.24-4.02.34-5.85.34-15.14,0-26.85-5.51-35.11-16.52-6.43,11.02-14.35,21.92-23.75,32.7-9.41,10.79-20.08,19.62-32.01,26.51ZM2489.41,842.72c22.48,0,44.75-11.02,66.78-33.04,6.42-6.42,12.27-13.19,17.55-20.31,5.27-7.11,9.98-14.34,14.11-21.68-5.97-6.88-10.33-15.37-13.08-25.47-2.75-10.09-4.13-19.96-4.13-29.6,0-8.26,1.14-16.28,3.44-24.09,2.29-6.42,5.73-11.7,10.33-15.83,4.58-4.13,9.4-6.2,14.46-6.2,2.29,0,4.82.69,7.57,2.07,2.29.93,4.01,2.18,5.16,3.79,1.14,1.61,1.95,3.1,2.41,4.47.45-15.14-2.65-27.88-9.3-38.2-6.66-10.33-17.55-15.49-32.7-15.49-9.19,0-18.59,3.56-28.22,10.67-9.64,7.12-18.7,15.73-27.19,25.81-8.5,10.1-15.95,20.43-22.37,30.98-6.43,10.56-11.25,19.28-14.46,26.16-7.81,16.98-13.43,32.13-16.87,45.43-3.44,13.32-5.16,25.02-5.16,35.11,0,14.69,3.1,25.93,9.29,33.73,6.2,7.8,13.65,11.7,22.37,11.7Z"/>
  </g>
</svg>