<?xml version="1.0" encoding="UTF-8"?>
<svg id="Layer_1" data-name="Layer 1" xmlns="http://www.w3.org/2000/svg" viewBox="0 0 1454 1404.17">
  <defs>
    <style>
      .cls-1 {
        fill: #587637;
      }
    </style>
  </defs>
  <path class="cls-1" d="M761.48,508.13c-38.49,113.55-85.16,203.63-140.05,270.25-54.89,66.64-112.85,114.01-173.83,142.16-61.01,28.15-121.53,42.23-181.57,42.23h-19.71c-6.58,0-13.15-.48-19.71-1.41-40.36-3.76-77.66-15.48-111.9-35.19-34.27-19.71-61.93-47.15-83.05-82.34C10.56,808.64,0,767.12,0,719.26c0-14.08,1.17-29.07,3.52-45.04,2.33-15.94,5.85-32.37,10.56-49.26,9.37-32.84,25.56-64.04,48.56-93.6,22.98-29.56,51.38-54.65,85.16-75.3-15.97-25.34-27.93-52.54-35.89-81.64-7.98-29.07-11.96-58.17-11.96-87.27,0-38.47,6.8-75.3,20.41-110.49,13.59-35.19,34.48-64.97,62.64-89.38,35.65-31.89,74.36-54.41,116.12-67.56C340.85,6.58,383.78,0,427.9,0s92.19,5.41,138.64,16.19c46.45,10.8,91.25,24.41,134.42,40.82,43.15,16.43,83.05,33.08,119.64,49.97,36.6,16.89,68.02,30.97,94.31,42.23,36.6-35.65,71.54-60.04,104.86-73.19,33.3-13.13,63.1-19.71,89.38-19.71,19.71,0,36.35,2.6,49.97,7.74,13.59,5.17,23.69,11.5,30.26,19,4.68,4.71,7.04,10.34,7.04,16.89s-2.35,9.85-7.04,9.85c-3.76,0-7.52-2.33-11.26-7.04-10.34-13.13-22.06-22.28-35.19-27.45-13.15-5.15-26.74-7.74-40.82-7.74-30.97,0-62.64,9.63-95.01,28.85-32.37,19.24-57.95,39.19-76.71,59.82,22.52,7.52,50.19,15.72,83.05,24.63,32.84,8.93,68.02,16.67,105.57,23.22,37.52,6.58,74.6,9.85,111.2,9.85,41.28,0,79.53-5.39,114.72-16.19,35.19-10.78,63.56-30.72,85.16-59.82,6.55-7.5,12.18-11.26,16.89-11.26s7.04,2.82,7.04,8.45-2.35,10.8-7.04,15.48c-20.65,23.47-50.21,43.17-88.68,59.12-38.49,15.97-86.81,23.93-144.98,23.93-40.36,0-84.94-4.68-133.72-14.08-48.8-9.37-102.75-24.85-161.87-46.45-15.02,16.89-30.75,40.36-47.15,70.38-16.43,30.04-31.67,61.23-45.75,93.6-14.08,32.37-26.04,61.71-35.89,87.97-9.85,26.28-15.72,43.63-17.59,52.08l-4.22,16.89M243.51,940.24c52.54,0,101.56-13.37,147.09-40.12,45.5-26.74,87.27-61.69,125.27-104.86,38-43.15,72.71-90.55,104.16-142.16,31.43-51.6,63.73-113.24,88.14-162.99-22.52-2.82-132.48,10.97-157.81,19.42-1.89.95-3.76,1.41-5.63,1.41-2.82,0-4.22-1.41-4.22-4.22,0-4.68,2.82-8.45,8.45-11.26,13.13-5.63,27.21-9.61,42.23-11.96,15-2.33,117.57-16.57,129.78-14.7,24.39-49.73,37.02-77.72,55.31-117.61,18.3-39.87,33.54-69.19,45.75-87.97,25.34-39.41,50.67-71.79,76.01-97.12-31.91-12.18-73.43-26.96-124.57-44.34-51.16-17.35-106.51-32.84-166.09-46.45-59.6-13.59-118.01-20.41-175.24-20.41-43.17,0-83.75,5.17-121.75,15.48-38,10.34-71.57,27.69-100.64,52.08-24.41,20.65-43.41,48.1-57.01,82.34-13.61,34.27-20.41,70.16-20.41,107.68,0,23.47,2.82,46.45,8.45,68.97,5.63,22.52,14.54,43.63,26.74,63.34,43.15-22.52,86.78-33.78,130.9-33.78,33.78,0,65.21,7.98,94.31,23.93,29.07,15.97,51.13,42.71,66.15,80.23,23.44-12.18,43.63-27.91,60.52-47.15,16.89-19.22,28.15-42.45,33.78-69.67,1.87-6.55,5.15-9.85,9.85-9.85s6.09,4.22,4.22,12.67c-9.39,33.78-23,61.47-40.82,83.05-17.84,21.6-37.54,38.49-59.12,50.67,6.55,19.71,9.85,39.9,9.85,60.52,0,36.6-9.15,70.38-27.45,101.34-18.3,30.97-42.47,55.6-72.49,73.9-30.04,18.3-62.88,27.45-98.53,27.45-15.02,0-31.21-3.74-48.56-11.26-17.37-7.5-29.8-15.94-37.3-25.34-3.76-3.74-5.63-7.96-5.63-12.67s1.87-7.04,5.63-7.04c5.63,0,11.72,3.76,18.3,11.26,7.5,8.45,19.71,15.02,36.6,19.71,16.89,4.71,31.43,7.04,43.63,7.04,27.21,0,52.54-8.67,76.01-26.04,23.44-17.35,42.45-40.12,57.01-68.27,14.54-28.15,21.82-57.71,21.82-88.68,0-15.94-2.35-32.37-7.04-49.26-15.02,5.63-30.04,9.63-45.04,11.96-15.02,2.35-30.04,3.52-45.04,3.52-17.84,0-34.73-1.41-50.67-4.22-54.43-11.26-98.53-37.06-132.31-77.42-21.6,17.84-40.36,39.9-56.3,66.15-15.97,26.28-29.1,54.43-39.41,84.45-5.63,16.89-9.63,33.32-11.96,49.26-2.35,15.97-3.52,31.45-3.52,46.45,0,41.3,8.45,77.9,25.34,109.79,16.89,31.91,39.63,57.01,68.27,75.3,28.61,18.3,60.28,27.45,95.01,27.45ZM340.63,546.13c15,0,30.48-1.41,46.45-4.22,15.94-2.82,31.43-7.5,46.45-14.08-12.21-33.78-30.5-58.63-54.89-74.6-24.41-15.94-51.16-23.93-80.23-23.93-40.36,0-78.82,13.15-115.42,39.41,13.13,16.89,29.56,31.67,49.26,44.34,19.71,12.67,42.69,22.3,68.97,28.85,13.13,2.82,26.26,4.22,39.41,4.22Z"/>
  <path class="cls-1" d="M1253.41,423.11v-1.41c-.95,0-3.76-.46-8.45-1.41-4.71-.92-10.8-1.41-18.3-1.41-14.08,0-32.86,3.3-56.3,9.85-23.47,6.58-51.62,21.6-84.45,45.04-25.34-7.5-52.78-13.13-82.34-16.89-29.56-3.74-59.36-5.63-89.38-5.63-44.12,0-91.49,5.41-142.16,16.19-12.03,2.56-24.02,5.48-35.97,8.73,8.2,2.85,16.2,6.28,23.99,10.13,47.97-12.07,100.28-18.16,156.96-18.16,28.15,0,54.65,1.89,79.53,5.63,24.85,3.76,47.61,9.39,68.27,16.89-37.54,30.04-80.47,75.3-128.79,135.83-48.34,60.52-100.64,143.81-156.94,249.84-23.47,44.12-49.51,93.14-78.12,147.09-28.63,53.97-59.36,106.27-92.19,156.94-32.86,50.67-68.05,93.84-105.57,129.49-28.15-11.26-55.84-21.58-83.05-30.97-27.23-9.37-53.03-14.08-77.42-14.08-17.84,0-34.73,3.3-50.67,9.85-15.97,6.58-28.39,15.97-37.3,28.15-8.93,12.21-13.37,24.87-13.37,38,0,15.94,7.26,30.48,21.82,43.63,14.54,13.13,37.3,19.71,68.27,19.71s62.64-7.74,97.82-23.22c35.19-15.48,64.97-30.75,89.38-45.75,11.26,4.71,23.22,9.63,35.89,14.78,12.67,5.15,26.5,9.61,41.52,13.37,18.76,4.68,38,8.2,57.71,10.56,19.71,2.33,38.93,3.52,57.71,3.52,54.41,0,106.49-8.45,156.24-25.34,49.73-16.89,94.31-39.63,133.72-68.27,39.41-28.61,70.6-61.45,93.6-98.53,22.98-37.06,34.48-75.77,34.48-116.12,0-45.97-11.26-81.64-33.78-106.97-22.52-25.34-51.16-44.1-85.86-56.3-34.73-12.18-69.92-20.63-105.57-25.34,35.65-2.82,72.01-9.37,109.09-19.71,37.06-10.31,71.78-24.85,104.16-43.63,32.37-18.76,58.41-42.69,78.12-71.79,19.71-29.07,29.56-63.34,29.56-102.75,0-42.23-10.56-76.01-31.67-101.34-21.11-25.34-49.04-44.56-83.75-57.71,24.39-21.58,45.75-35.41,64.04-41.52,18.3-6.09,34-9.15,47.15-9.15,6.55,0,12.43.48,17.59,1.41,5.15.95,10.07,1.41,14.78,1.41s7.04-2.33,7.04-7.04c0-3.74-2.35-5.63-7.04-5.63ZM339.91,1387.28c-22.52,0-38.25-3.52-47.15-10.56-8.93-7.04-13.37-15.26-13.37-24.63,0-10.31,5.39-21.11,16.19-32.37,10.78-11.26,24.15-18.76,40.12-22.52,14.08-2.82,27.67-4.22,40.82-4.22,20.63,0,39.87,3.06,57.71,9.15,17.81,6.11,36.11,12.91,54.89,20.41-45.99,43.15-95.71,64.75-149.2,64.75ZM945.86,910.12c34.24,11.26,62.64,27.69,85.16,49.26,22.52,21.6,33.78,51.62,33.78,90.08v16.89c0,5.63-.95,11.74-2.82,18.3-8.45,45.04-25.34,84.45-50.67,118.23-25.34,33.78-56.08,61.71-92.19,83.75-36.13,22.06-74.6,38.49-115.42,49.26-40.82,10.78-80.47,16.19-118.94,16.19-31.91,0-60.52-3.3-85.86-9.85-10.34-2.82-20.65-5.85-30.97-9.15-10.34-3.28-20.65-6.8-30.97-10.56,57.23-39.41,104.16-83.97,140.76-133.72,36.6-49.73,67.78-101.1,93.6-154.13,25.8-53,49.97-102.97,72.49-149.9,33.78,5.63,67.78,14.08,102.05,25.34ZM1149.25,556.83c14.08,23.47,21.11,52.56,21.11,87.27,0,42.23-9.63,77.42-28.85,105.57-19.24,28.15-44.82,50.67-76.71,67.56-31.91,16.89-66.86,29.56-104.86,38-38,8.45-75.3,14.56-111.9,18.3,9.37-23.44,23.44-52.3,42.23-86.56,18.76-34.24,40.12-69.89,64.04-106.97,23.93-37.06,47.61-71.54,71.08-103.45,23.44-31.89,45.04-56.76,64.75-74.6,25.34,13.15,45.04,31.45,59.12,54.89Z"/>
</svg>