<?xml version="1.0" encoding="UTF-8"?>
<svg id="Layer_1" data-name="Layer 1" xmlns="http://www.w3.org/2000/svg" viewBox="0 0 1047.5 1011.61">
  <defs>
    <style>
      .cls-1 {
        fill: #93a660;
      }
    </style>
  </defs>
  <path class="cls-1" d="M548.6,366.07c-27.73,81.8-61.35,146.7-100.9,194.7-39.55,48.01-81.3,82.14-125.23,102.42-43.95,20.28-87.56,30.42-130.81,30.42h-14.2c-4.74,0-9.47-.35-14.2-1.01-29.07-2.71-55.95-11.15-80.62-25.35-24.69-14.2-44.62-33.97-59.83-59.32-15.21-25.35-22.82-55.27-22.82-89.74,0-10.14.84-20.95,2.54-32.45,1.68-11.49,4.21-23.32,7.61-35.49,6.75-23.66,18.41-46.14,34.98-67.43,16.56-21.29,37.01-39.37,61.35-54.25-11.5-18.25-20.12-37.85-25.86-58.81-5.75-20.95-8.62-41.91-8.62-62.87,0-27.71,4.9-54.25,14.7-79.6,9.79-25.35,24.84-46.8,45.12-64.39,25.68-22.97,53.57-39.2,83.66-48.67C245.56,4.74,276.48,0,308.27,0s66.42,3.9,99.88,11.66c33.46,7.78,65.74,17.59,96.84,29.41,31.09,11.84,59.83,23.83,86.19,36,26.37,12.17,49.01,22.31,67.94,30.42,26.37-25.68,51.54-43.26,75.55-52.73,23.99-9.46,45.46-14.2,64.39-14.2,14.2,0,26.19,1.87,36,5.58,9.79,3.72,17.06,8.29,21.8,13.69,3.37,3.39,5.07,7.45,5.07,12.17s-1.7,7.1-5.07,7.1c-2.71,0-5.42-1.68-8.11-5.07-7.45-9.46-15.89-16.05-25.35-19.77-9.47-3.71-19.27-5.58-29.41-5.58-22.31,0-45.12,6.94-68.45,20.79-23.32,13.86-41.75,28.23-55.27,43.1,16.22,5.42,36.16,11.33,59.83,17.75,23.66,6.43,49.01,12.01,76.05,16.73,27.03,4.74,53.74,7.1,80.11,7.1,29.74,0,57.29-3.88,82.64-11.66,25.35-7.76,45.79-22.13,61.35-43.1,4.72-5.4,8.78-8.11,12.17-8.11s5.07,2.03,5.07,6.08-1.7,7.78-5.07,11.15c-14.88,16.91-36.17,31.1-63.88,42.59-27.73,11.5-62.54,17.24-104.45,17.24-29.07,0-61.19-3.37-96.33-10.14-35.16-6.75-74.02-17.9-116.61-33.46-10.82,12.17-22.15,29.07-33.97,50.7-11.84,21.64-22.82,44.11-32.96,67.43-10.14,23.32-18.76,44.46-25.86,63.38-7.1,18.93-11.33,31.44-12.68,37.52l-3.04,12.17M175.43,677.38c37.85,0,73.17-9.63,105.97-28.9,32.78-19.27,62.87-44.44,90.25-75.55,27.38-31.09,52.38-65.23,75.04-102.42,22.64-37.17,45.91-81.58,63.5-117.42-16.22-2.03-95.44,7.91-113.69,13.99-1.36.68-2.71,1.01-4.06,1.01-2.03,0-3.04-1.01-3.04-3.04,0-3.37,2.03-6.08,6.08-8.11,9.46-4.06,19.6-6.92,30.42-8.62,10.81-1.68,84.7-11.94,93.5-10.59,17.57-35.82,26.67-55.99,39.85-84.73,13.18-28.73,24.16-49.85,32.96-63.38,18.25-28.39,36.51-51.72,54.76-69.97-22.99-8.78-52.9-19.43-89.74-31.94-36.85-12.5-76.73-23.66-119.66-33.46-42.94-9.79-85.02-14.7-126.25-14.7-31.1,0-60.34,3.72-87.71,11.15-27.38,7.45-51.56,19.95-72.5,37.52-17.59,14.88-31.28,34.65-41.07,59.32-9.81,24.69-14.7,50.54-14.7,77.57,0,16.91,2.03,33.46,6.08,49.69,4.06,16.22,10.47,31.44,19.27,45.63,31.09-16.22,62.52-24.34,94.31-24.34,24.34,0,46.98,5.75,67.94,17.24,20.95,11.5,36.84,30.77,47.66,57.8,16.89-8.78,31.44-20.11,43.6-33.97,12.17-13.85,20.28-30.58,24.34-50.19,1.35-4.72,3.71-7.1,7.1-7.1s4.39,3.04,3.04,9.13c-6.77,24.34-16.57,44.29-29.41,59.83-12.85,15.56-27.05,27.73-42.59,36.51,4.72,14.2,7.1,28.74,7.1,43.6,0,26.37-6.59,50.7-19.77,73.01-13.18,22.31-30.6,40.05-52.22,53.24-21.64,13.18-45.3,19.77-70.98,19.77-10.82,0-22.48-2.69-34.98-8.11-12.52-5.4-21.47-11.49-26.87-18.25-2.71-2.69-4.06-5.74-4.06-9.13s1.35-5.07,4.06-5.07c4.06,0,8.45,2.71,13.18,8.11,5.4,6.08,14.2,10.82,26.37,14.2,12.17,3.39,22.64,5.07,31.44,5.07,19.6,0,37.85-6.24,54.76-18.76,16.89-12.5,30.58-28.9,41.07-49.18,10.47-20.28,15.72-41.58,15.72-63.88,0-11.49-1.7-23.32-5.07-35.49-10.82,4.06-21.64,6.94-32.45,8.62-10.82,1.7-21.64,2.54-32.45,2.54-12.85,0-25.02-1.01-36.51-3.04-39.21-8.11-70.98-26.7-95.32-55.77-15.56,12.85-29.07,28.74-40.56,47.66-11.5,18.93-20.96,39.21-28.39,60.84-4.06,12.17-6.94,24-8.62,35.49-1.7,11.5-2.54,22.66-2.54,33.46,0,29.76,6.08,56.12,18.25,79.1,12.17,22.99,28.55,41.07,49.18,54.25,20.61,13.18,43.43,19.77,68.45,19.77ZM245.4,393.45c10.81,0,21.96-1.01,33.46-3.04,11.49-2.03,22.64-5.4,33.46-10.14-8.79-24.34-21.98-42.24-39.55-53.74-17.59-11.49-36.85-17.24-57.8-17.24-29.07,0-56.79,9.47-83.15,28.39,9.46,12.17,21.29,22.82,35.49,31.94,14.2,9.13,30.75,16.07,49.69,20.79,9.46,2.03,18.92,3.04,28.39,3.04Z"/>
  <path class="cls-1" d="M902.99,304.82v-1.01c-.68,0-2.71-.33-6.08-1.01-3.39-.67-7.78-1.01-13.18-1.01-10.14,0-23.67,2.38-40.56,7.1-16.91,4.74-37.19,15.56-60.84,32.45-18.25-5.4-38.03-9.46-59.32-12.17-21.29-2.69-42.76-4.06-64.39-4.06-31.78,0-65.91,3.9-102.42,11.66-8.67,1.85-17.31,3.95-25.92,6.29,5.91,2.06,11.67,4.52,17.29,7.29,34.56-8.7,72.24-13.08,113.08-13.08,20.28,0,39.37,1.36,57.29,4.06,17.9,2.71,34.3,6.77,49.18,12.17-27.05,21.64-57.97,54.25-92.78,97.85-34.83,43.6-72.5,103.61-113.07,179.99-16.91,31.78-35.67,67.1-56.28,105.97-20.63,38.88-42.76,76.56-66.42,113.07-23.67,36.51-49.02,67.61-76.05,93.29-20.28-8.11-40.23-15.54-59.83-22.31-19.62-6.75-38.2-10.14-55.77-10.14-12.85,0-25.02,2.38-36.51,7.1-11.5,4.74-20.46,11.5-26.87,20.28-6.43,8.79-9.63,17.92-9.63,27.38,0,11.49,5.23,21.96,15.72,31.43,10.47,9.46,26.87,14.2,49.18,14.2s45.12-5.58,70.48-16.73c25.35-11.15,46.8-22.15,64.39-32.96,8.11,3.39,16.73,6.94,25.86,10.65,9.13,3.71,19.09,6.92,29.91,9.63,13.52,3.38,27.38,5.91,41.58,7.61,14.2,1.68,28.04,2.54,41.58,2.54,39.2,0,76.72-6.08,112.56-18.25,35.82-12.17,67.94-28.55,96.33-49.18,28.39-20.61,50.86-44.27,67.43-70.98,16.56-26.7,24.84-54.58,24.84-83.66,0-33.11-8.11-58.81-24.34-77.07-16.22-18.25-36.85-31.77-61.86-40.56-25.02-8.78-50.37-14.86-76.05-18.25,25.68-2.03,51.87-6.75,78.59-14.2,26.7-7.43,51.72-17.9,75.04-31.44,23.32-13.52,42.08-30.75,56.28-51.72,14.2-20.95,21.29-45.63,21.29-74.02,0-30.42-7.61-54.76-22.82-73.01-15.21-18.25-35.33-32.1-60.34-41.58,17.57-15.54,32.96-25.51,46.14-29.91,13.18-4.39,24.5-6.59,33.97-6.59,4.72,0,8.95.35,12.68,1.01,3.71.68,7.26,1.01,10.65,1.01s5.07-1.68,5.07-5.07c0-2.69-1.7-4.06-5.07-4.06ZM244.88,999.44c-16.22,0-27.55-2.54-33.97-7.61-6.43-5.07-9.63-11-9.63-17.75,0-7.43,3.88-15.21,11.66-23.32,7.76-8.11,17.4-13.52,28.9-16.22,10.14-2.03,19.93-3.04,29.41-3.04,14.86,0,28.73,2.2,41.58,6.59,12.83,4.4,26.02,9.3,39.55,14.7-33.13,31.09-68.95,46.65-107.49,46.65ZM681.42,655.68c24.67,8.11,45.12,19.95,61.35,35.49,16.22,15.56,24.34,37.19,24.34,64.9v12.17c0,4.06-.68,8.46-2.03,13.18-6.08,32.45-18.25,60.84-36.51,85.18-18.25,24.34-40.4,44.46-66.42,60.34-26.03,15.89-53.74,27.73-83.15,35.49-29.41,7.76-57.97,11.66-85.69,11.66-22.99,0-43.6-2.38-61.86-7.1-7.45-2.03-14.88-4.21-22.31-6.59-7.45-2.36-14.88-4.9-22.31-7.61,41.23-28.39,75.04-60.49,101.4-96.33,26.36-35.82,48.83-72.84,67.43-111.04,18.59-38.19,36-74.18,52.22-108,24.34,4.06,48.83,10.14,73.52,18.25ZM827.95,401.16c10.14,16.91,15.21,37.87,15.21,62.87,0,30.42-6.94,55.77-20.79,76.05-13.86,20.28-32.29,36.51-55.27,48.67-22.99,12.17-48.17,21.29-75.55,27.38-27.38,6.08-54.25,10.49-80.62,13.18,6.75-16.89,16.89-37.68,30.42-62.36,13.52-24.67,28.9-50.35,46.14-77.07,17.24-26.7,34.3-51.54,51.21-74.53,16.89-22.97,32.45-40.89,46.65-53.74,18.25,9.48,32.45,22.66,42.59,39.55Z"/>
</svg>