<svg width="58" height="69" viewBox="0 0 58 69" fill="none" xmlns="http://www.w3.org/2000/svg">
<path d="M29.2938 9.79568C29.4197 9.92632 28.4633 12.0632 29.1071 12.0538L37.1927 9.17982C37.4633 9.05385 37.6826 9.06318 37.9532 9.19848C38.4291 9.44109 41.8396 16.1223 42.3762 17.2374C45.1522 23.0181 47.4757 28.1409 46.5939 34.8128C46.342 36.721 44.9376 38.8579 44.7323 40.8594C44.3591 44.5546 47.919 55.3369 49.4493 59.1347C49.7246 59.8206 50.4197 61.3975 50.8116 61.9154C52.8132 64.5748 57.3902 62.3913 57.9221 62.9045C58.1274 63.1052 57.8428 63.9077 57.5721 64.2436C56.4057 65.6946 46.7106 67.5002 44.4524 68.4706C42.8334 68.6479 42.2409 67.9854 43.7292 66.973C45.8288 65.5499 48.6048 64.0709 47.9703 61.015C46.9905 56.2933 43.3326 45.0492 40.2253 41.6013C38.569 39.7677 35.9936 38.6153 34.5659 36.7117C30.9594 31.9014 30.0683 20.8905 29.2891 14.8626C29.2238 14.3587 29.3917 12.9077 29.2891 12.791C28.8505 12.2778 28.5706 12.7397 28.5426 13.3556C28.2813 18.9776 26.6903 31.4349 22.7106 35.41C21.5628 36.5577 19.6033 37.4302 18.3949 38.6293C15.1802 41.8019 10.8925 54.0725 10.1554 58.6542C9.82409 60.7164 10.8132 62.1907 12.3669 63.4318C13.0294 63.9636 14.919 64.7895 15.1849 65.1534C15.3155 65.3307 14.9843 66.2265 14.9423 66.2638C14.653 66.4971 12.1989 66.2451 11.5644 66.1238C9.31554 65.6853 4.79921 63.707 2.54571 62.7086C1.15069 62.0881 -1.84931 60.4691 1.59392 60.6277C4.09004 60.7444 5.67635 61.8221 7.60326 59.1114C8.87231 57.3244 11.863 47.466 12.5348 44.8252C14.4617 37.2389 11.8816 37.0243 11.2471 30.651C10.4213 22.3835 16.8272 14.0741 19.9019 6.79102C21.1569 7.15027 28.8599 9.33378 29.2938 9.78635V9.79568ZM28.1274 10.2016L20.4804 7.54685C20.0325 8.0834 17.6064 12.903 18.0029 13.1689L27.4089 16.1969C27.5768 15.2265 28.5426 10.6775 28.1274 10.2063V10.2016ZM37.9485 9.79568C37.5613 9.52507 30.9594 12.4738 29.8303 12.7863C29.555 13.1549 30.4602 18.4318 30.9921 18.4458C33.9407 17.2234 37.1087 16.3835 40.2253 15.4364L37.9532 9.79568H37.9485ZM16.8645 17.3213C16.8365 16.9714 16.6452 16.0849 16.104 16.3789C15.4042 16.7615 16.2767 17.3027 16.048 17.6199C15.9781 17.7179 15.5348 17.6946 15.3529 17.9605C14.3404 19.4349 15.0309 19.9668 14.8583 20.8439C14.0418 24.931 12.5721 27.6557 13.9485 32.0974C14.5131 33.9123 14.5037 33.4038 15.6841 34.1129C16.7106 34.7288 16.2953 35.4286 17.611 34.2762C17.5644 35.2 17.3824 35.6339 18.5675 35.4193C19.8225 35.1954 19.0154 34.3509 19.4773 34.071C19.7012 33.9356 21.2689 34.4255 21.7588 33.3338L20.6297 32.7739C21.4368 32.8905 22.5519 32.6106 22.8879 31.8268C23.2564 30.9543 21.9781 31.5608 22.1367 30.8937C23.863 31.1829 24.1896 28.7801 23.6437 27.4971C23.7837 27.3618 24.3995 28.4955 24.7588 26.8999C24.9454 26.0647 23.835 26.5126 24.0216 26.1814C26.6297 24.6837 26.6204 22.7101 27.0356 19.9668L25.1507 20.34C24.9781 20.1161 25.9392 19.8314 25.062 19.5795C24.5395 19.4302 24.7448 18.8563 24.7774 18.8377C25.09 18.6231 26.2051 19.3556 25.9065 18.0818L23.6484 19.2109V17.3307C21.7961 18.833 19.8039 16.7708 17.6204 17.7086L19.8785 16.2016C19.258 16.5282 18.2036 16.2716 17.7137 16.4582C17.0092 16.7288 17.4897 17.4007 16.8692 17.3307L16.8645 17.3213ZM40.8552 18.973C40.6872 18.819 39.8894 18.4038 39.8428 18.4504L40.5939 19.9528C39.7354 19.9807 38.849 20.0227 38.0325 19.6961C37.3513 19.4209 37.8832 18.5437 36.8241 18.8283C37.5986 20.9279 37.2627 20.0741 36.1896 20.0881C35.7837 20.0927 35.1445 20.424 34.9812 20.2933C34.7899 20.144 35.2144 19.4162 34.5659 19.5795V21.4598L31.9252 20.3353L33.4322 21.8377C32.9003 21.8703 32.2331 21.763 31.7899 21.4738C31.3933 21.2171 31.8132 20.4147 30.7961 20.7086C31.3233 21.8843 31.3793 26.3867 31.9298 27.1098C31.9718 27.1658 32.555 27.3011 32.6763 26.8486C32.9236 25.9201 33.1569 26.242 33.8054 26.9232L32.681 27.6744L33.8101 28.2436C33.9547 28.8921 33.3435 28.4769 33.0916 28.6495C32.9843 28.7195 33.5115 30.8003 34.5659 30.1285C34.7526 30.7817 33.7354 30.3151 33.8194 30.679C34.0807 31.7661 34.7665 33.4131 36.0729 33.1425C35.6297 33.5297 35.2191 34.6775 35.695 35.0227C36.0449 35.2747 37.4306 34.1736 37.5799 35.396L36.4508 35.5873C37.0387 36.861 38.6204 36.0632 38.709 36.1565C38.8303 36.2871 38.0185 37.4069 38.9143 37.6495C40.118 37.9714 40.4026 37.6681 40.2207 36.5344C40.8925 36.2638 41.3591 37.2902 41.5364 37.2856C41.7883 37.2809 41.9656 36.4598 42.2082 36.2731C43.0014 35.6573 43.7759 36.1705 44.2751 34.3789C45.5162 29.8952 44.1491 27.5064 43.3093 23.4286C43.0714 22.2669 43.8179 21.7817 42.6468 20.3447C42.1242 19.7055 41.3824 20.4426 42.1056 18.8377C40.9672 18.5484 41.5084 19.3975 41.3498 19.5888C41.0465 19.9574 40.9625 19.0756 40.8599 18.9823L40.8552 18.973ZM19.4959 36.5391C18.3249 36.637 17.3824 36.5344 16.2767 36.1751C14.7837 35.6946 14.4431 34.6122 13.09 34.2762C13.7199 36.7024 16.1787 37.3882 18.4602 37.0336C18.8241 36.9776 19.314 37.4162 19.4959 36.5344V36.5391ZM45.1149 36.5391L42.4788 38.2327L38.3358 39.1705C40.9672 39.749 44.3124 39.5111 45.1149 36.5391ZM13.8412 44.8206C13.7899 43.6682 15.7075 42.4038 14.4104 41.4333C14.0045 42.0305 13.7945 42.959 13.6359 43.6728C13.5519 44.0554 13.146 44.9092 13.8459 44.8206H13.8412ZM44.3591 46.7055L43.7992 43.6961L42.8567 44.256L44.3591 46.7055ZM9.69812 62.1534C9.20823 60.8657 9.1849 59.7412 9.13825 58.3882C7.5286 60.1658 7.69657 60.917 9.69812 62.1534ZM48.1289 64.7895C48.7494 64.9807 50.3218 62.8719 50.3264 62.7226C50.3311 62.5733 49.2953 61.3462 49.0667 61.0243L48.8194 63.0165L48.1289 64.7895ZM14.597 65.172L11.2098 64.0383C11.0232 65.1021 11.4477 64.6588 12.0403 64.8781C12.5068 65.0507 14.4617 66.0212 14.597 65.1674V65.172Z" fill="#94A760"/>
<path d="M28.1599 45.5782C26.7182 44.953 27.7213 43.4366 27.7913 42.3822C27.8986 40.8052 27.6607 39.1723 28.3512 37.6699C29.7276 39.8628 28.1132 43.1287 28.1599 45.5782Z" fill="#94A760"/>
<path d="M30.037 5.2675C30.0043 5.31415 28.9452 5.4168 28.9219 5.0902C29.813 3.67185 29.0152 1.04044 30.4195 0C30.3356 1.18507 30.6342 4.37636 30.037 5.27216V5.2675Z" fill="#94A760"/>
<path d="M24.7757 39.9273C24.6077 39.764 26.586 36.2274 27.4118 36.1621C27.8317 37.0672 25.4615 40.5991 24.7757 39.9273Z" fill="#94A760"/>
<path d="M33.4396 4.14315C33.3183 4.77301 30.7662 6.72324 30.4256 6.40132C29.8564 5.86477 32.5625 3.66726 33.4396 4.14315Z" fill="#94A760"/>
<path d="M26.656 3.00808C26.7726 3.09206 27.8971 5.54618 27.7897 5.63949C26.7213 6.59595 26.0355 3.75924 25.9002 3.19937C25.8582 2.87278 26.5953 2.96142 26.656 3.00808Z" fill="#94A760"/>
<path d="M35.6991 23.3558C35.1625 24.7881 34.7846 23.3325 34.0661 23.3978C33.6555 23.4351 32.4238 24.5222 31.9339 24.1023C31.2154 23.4818 32.5124 23.2998 32.6851 23.1785C34.612 21.8441 33.7115 22.5813 35.6991 23.3558Z" fill="#94A760"/>
<path d="M36.8263 27.1211L37.9554 28.6234C37.4048 28.6374 36.7097 29.3559 36.2478 28.6421C35.9585 28.1942 35.6552 26.8272 36.8263 27.1211Z" fill="#94A760"/>
<path d="M26.282 21.0981C26.4593 22.8523 24.6957 21.2054 24.1498 21.14C23.4826 21.0607 23.156 22.3951 22.5168 21.28C22.4655 21.1867 24.1031 20.0156 24.2058 20.0156C24.3924 20.0156 25.5728 21.294 26.282 21.0981Z" fill="#94A760"/>
<path d="M16.4874 27.5026C16.3941 28.0671 16.6274 27.7965 16.968 27.8805C17.4066 27.9878 17.2899 28.9443 17.2386 29.0003C17.052 29.2055 15.7643 29.0656 15.8016 28.1418C15.8342 27.2366 16.6321 25.767 17.6118 26.9287L16.4874 27.4979V27.5026Z" fill="#94A760"/>
<path d="M21.7532 26.7445L20.2509 26.3619C20.1016 25.7601 20.6801 26.138 20.8808 25.8907C21.1 25.6201 21.1514 24.491 21.5666 24.4864C22.3971 24.477 21.9585 26.25 21.7532 26.7445Z" fill="#94A760"/>
</svg>
